<?xml version="1.0" encoding="UTF-8"?>
<svg version="1.1" xmlns="http://www.w3.org/2000/svg" width="459" height="444">
<path d="M0 0 C151.47 0 302.94 0 459 0 C459 146.52 459 293.04 459 444 C307.53 444 156.06 444 0 444 C0 297.48 0 150.96 0 0 Z " fill="#FEFDFD" transform="translate(0,0)"/>
<path d="M0 0 C0 100.98 0 201.96 0 306 C-134.30238095 306 -134.30238095 306 -142.640625 302.8046875 C-145.47624202 301.83757309 -148.30931489 301.31984568 -151.25 300.75 C-165.4386723 297.54557343 -177.98267586 288.2894416 -188 278 C-189.1446875 276.9171875 -189.1446875 276.9171875 -190.3125 275.8125 C-197.23690303 268.56603171 -203.43998546 260.34002182 -209 252 C-209.38671875 252.77085937 -209.7734375 253.54171875 -210.171875 254.3359375 C-210.69265625 255.33882813 -211.2134375 256.34171875 -211.75 257.375 C-212.51570313 258.87160156 -212.51570313 258.87160156 -213.296875 260.3984375 C-215.10355958 263.15818963 -216.0774989 263.72140577 -219 265 C-220.18350894 266.67663766 -221.36305302 268.35655124 -222.50390625 270.0625 C-224.71495628 272.92589639 -227.41742898 275.07055974 -230.23046875 277.32421875 C-232.10985079 279.10403088 -232.92471848 280.6718235 -234 283 C-236.04610098 284.83443536 -237.71622432 285.90029503 -240.3125 286.8125 C-242.91766231 287.96361823 -244.10397269 288.95044178 -246.125 290.875 C-250.50603113 294.78935607 -255.46688928 296.27669876 -261 298 C-262.70968046 298.53739956 -264.41814358 299.07869723 -266.125 299.625 C-266.84945312 299.84414063 -267.57390625 300.06328125 -268.3203125 300.2890625 C-270.20725322 300.87336438 -270.20725322 300.87336438 -271 303 C-272.1955057 302.97421513 -272.1955057 302.97421513 -273.41516304 302.94790936 C-281.15260565 302.85356958 -288.53550188 303.42958783 -296.19091797 304.48168945 C-309.48452656 306.14902916 -322.56453784 306.38884631 -335.9453125 306.29296875 C-338.30711594 306.2873509 -340.66892296 306.28309121 -343.0307312 306.28010559 C-349.1493959 306.26882876 -355.26783575 306.23951652 -361.38641357 306.20599365 C-368.77997188 306.16941996 -376.17360674 306.15604964 -383.56723022 306.13863373 C-394.71164163 306.10986329 -405.85556292 306.05225769 -417 306 C-417 279.93 -417 253.86 -417 227 C-409.11480469 226.97421875 -401.22960937 226.9484375 -393.10546875 226.921875 C-388.09697311 226.89669556 -383.0885372 226.87035404 -378.08007812 226.83984375 C-370.13811281 226.79157342 -362.19625477 226.74750412 -354.25415039 226.72900391 C-347.84787612 226.71381131 -341.44196478 226.67931858 -335.03585243 226.63169098 C-332.59719314 226.61690419 -330.15848203 226.60896055 -327.71977806 226.60811615 C-324.29220693 226.60573671 -320.86563085 226.57857656 -317.43823242 226.54589844 C-316.43984848 226.5509288 -315.44146454 226.55595917 -314.41282654 226.56114197 C-304.81735493 226.42048129 -296.7427176 223.61347026 -289 218 C-288.01 217.67 -287.02 217.34 -286 217 C-285.34 216.01 -284.68 215.02 -284 214 C-283.22785156 213.57976562 -282.45570313 213.15953125 -281.66015625 212.7265625 C-278.27328007 210.52832568 -276.50146072 207.7503145 -274.4375 204.375 C-274.04546387 203.74762939 -273.65342773 203.12025879 -273.24951172 202.47387695 C-269.06685891 195.66810082 -266.10736685 188.75281235 -263.7109375 181.140625 C-263 179 -263 179 -262.0078125 176.890625 C-260.48659063 172.52743049 -260.06574779 168.07255069 -259.5 163.5 C-259.24334958 161.49854856 -258.9855446 159.49724482 -258.7265625 157.49609375 C-258.60313477 156.53815918 -258.47970703 155.58022461 -258.35253906 154.59326172 C-257.94113897 151.56702088 -257.41560235 148.56808771 -256.875 145.5625 C-255.71022047 138.35241843 -255.56780795 131.06833637 -255.34130859 123.77954102 C-255.3098877 122.81846436 -255.2784668 121.8573877 -255.24609375 120.8671875 C-255.22216553 120.00206543 -255.1982373 119.13694336 -255.17358398 118.24560547 C-255 116 -255 116 -254 113 C-223.97 113 -193.94 113 -163 113 C-162.67 121.25 -162.34 129.5 -162 138 C-161.12472497 146.68542146 -159.69155649 154.82685191 -157.45727539 163.22827148 C-156.40967647 167.18839899 -155.65332037 171.06555879 -155.125 175.125 C-153.58734663 185.0993356 -149.09063688 194.04833519 -143 202 C-142.566875 203.2375 -142.566875 203.2375 -142.125 204.5 C-140.63371874 207.81395836 -138.41378176 209.81123279 -135.796875 212.29296875 C-134.27936513 213.73460313 -132.84719451 215.26527432 -131.4375 216.8125 C-128.69189177 219.27650739 -126.50018904 219.9573905 -123 221 C-121.64377755 221.96873032 -120.30582947 222.96434215 -119 224 C-115.48804359 225.17065214 -112.5874991 225.19446108 -108.8828125 225.28125 C-107.84155716 225.30886414 -107.84155716 225.30886414 -106.77926636 225.33703613 C-104.56126251 225.39570047 -102.34318166 225.44852626 -100.125 225.5 C-97.21078577 225.56794965 -94.29679822 225.64168341 -91.3828125 225.71875 C-90.08746582 225.74904297 -88.79211914 225.77933594 -87.45751953 225.81054688 C-84 226 -84 226 -79 227 C-79 152.09 -79 77.18 -79 0 C-52.22100554 -0.86383853 -26.74958416 -0.95534229 0 0 Z " fill="#AE0042" transform="translate(436,122)"/>
<path d="M0 0 C135 0 135 0 147 6 C149.40439791 6.8281815 151.82218484 7.61821243 154.25 8.375 C163.31422226 11.31153226 172.50989589 14.67176986 179 22 C179 22.66 179 23.32 179 24 C179.845625 24.20625 180.69125 24.4125 181.5625 24.625 C191.87002609 28.74801044 199.24556445 39.38518048 204 49 C206.56197123 51.81356892 206.56197123 51.81356892 209 54 C209.99 52.02 210.98 50.04 212 48 C212.66 48 213.32 48 214 48 C214.16242188 47.13375 214.16242188 47.13375 214.328125 46.25 C216.12069378 40.24697898 221.11319673 35.63377679 226 32 C228.32538194 29.73133469 230.59213268 27.48339831 232.6875 25 C235.63768754 22.44848645 238.82338311 21.03599799 242.33203125 19.3671875 C245.7686494 17.60610938 248.85647012 15.47913209 251.9921875 13.234375 C254.01555837 11.99043493 255.67936094 11.43707103 258 11 C258 10.34 258 9.68 258 9 C261.41584072 7.8516942 264.83281142 6.70678792 268.25 5.5625 C269.70212891 5.07426758 269.70212891 5.07426758 271.18359375 4.57617188 C272.11816406 4.26357422 273.05273438 3.95097656 274.015625 3.62890625 C275.30388184 3.1968689 275.30388184 3.1968689 276.61816406 2.75610352 C280.72938755 1.4510134 284.23080866 0.87021006 288.56817627 0.84178162 C290.26766922 0.82709839 290.26766922 0.82709839 292.00149536 0.81211853 C293.85942215 0.80348534 293.85942215 0.80348534 295.75488281 0.79467773 C297.06244537 0.78477814 298.37000793 0.77487854 299.7171936 0.76467896 C303.29946764 0.73766724 306.8817548 0.7166375 310.46407413 0.69667697 C314.20904488 0.67479436 317.95397534 0.64741681 321.69891357 0.62062073 C328.78903496 0.57072459 335.87917875 0.52577435 342.9693439 0.48259836 C352.5513149 0.42396276 362.13323289 0.35769243 371.71515656 0.29184818 C386.81006865 0.18832167 401.90502627 0.0950005 417 0 C417 26.4 417 52.8 417 80 C409.09160156 80.03738281 401.18320312 80.07476562 393.03515625 80.11328125 C388.01755655 80.14356612 382.9999921 80.17471749 377.98242188 80.20898438 C370.02271703 80.26326186 362.06310483 80.31437399 354.10327148 80.34643555 C347.68408684 80.37249251 341.265137 80.41291258 334.84609795 80.46318626 C332.40020105 80.47983866 329.95426355 80.49136304 327.50831795 80.49761391 C324.07569028 80.50727235 320.64366112 80.53535398 317.21118164 80.56762695 C316.20560715 80.56619186 315.20003265 80.56475677 314.16398621 80.5632782 C307.88716864 80.64644007 302.83631374 81.74438086 297 84 C295.96875 84.28875 294.9375 84.5775 293.875 84.875 C283.66089856 88.8718223 277.3652068 97.85040626 272 107 C271.443125 107.87269531 270.88625 108.74539062 270.3125 109.64453125 C256.77694601 131.43560632 255.09954324 157.80092026 254.39453125 182.80273438 C254.35714844 183.97255859 254.31976563 185.14238281 254.28125 186.34765625 C254.25095703 187.40992432 254.22066406 188.47219238 254.18945312 189.56665039 C254 192 254 192 253 193 C250.2001028 193.09519368 247.42493826 193.12553944 244.62475586 193.11352539 C243.30780479 193.11374443 243.30780479 193.11374443 241.96424866 193.1139679 C239.04775565 193.11326844 236.13132567 193.10547455 233.21484375 193.09765625 C231.19845108 193.09579218 229.18205796 193.09436823 227.16566467 193.09336853 C221.84734862 193.08954244 216.5290597 193.07971139 211.21075439 193.06866455 C205.78829312 193.05845238 200.36582748 193.05387133 194.94335938 193.04882812 C184.29556097 193.0380892 173.64778274 193.02101169 163 193 C162.35745519 188.03551024 161.868172 183.23240554 161.7890625 178.21875 C161.41498107 160.30105997 160.56938802 144.16005411 153.4140625 127.484375 C152.12566234 124.30964311 151.1918359 121.2587009 150.375 117.9375 C149.28163919 113.6088142 147.70359705 110.60479607 145 107 C144.34195053 105.81922575 143.69649867 104.63136039 143.0625 103.4375 C141.16644317 100.06755524 138.84533651 97.63714116 136 95 C135.278125 94.175 134.55625 93.35 133.8125 92.5 C119.11340561 79.43413832 97.06017383 81.16517251 79 80 C79 154.91 79 229.82 79 307 C52.93 307 26.86 307 0 307 C0 205.69 0 104.38 0 0 Z " fill="#AD0040" transform="translate(19,11)"/>
<path d="M0 0 C0 100.98 0 201.96 0 306 C-134.30238095 306 -134.30238095 306 -142.640625 302.8046875 C-145.47624202 301.83757309 -148.30931489 301.31984568 -151.25 300.75 C-165.42378051 297.54893665 -178.00453178 288.29683912 -188 278 C-188.928125 277.071875 -189.85625 276.14375 -190.8125 275.1875 C-191.8953125 274.1046875 -191.8953125 274.1046875 -193 273 C-192.67 272.34 -192.34 271.68 -192 271 C-190.35 271.66 -188.7 272.32 -187 273 C-187 274.32 -187 275.64 -187 277 C-186.278125 277.061875 -185.55625 277.12375 -184.8125 277.1875 C-181.1613725 278.24227017 -179.65805889 280.34194111 -177 283 C-174.32209104 283.87238858 -174.32209104 283.87238858 -172 284 C-172 284.66 -172 285.32 -172 286 C-171.34 286 -170.68 286 -170 286 C-170 286.66 -170 287.32 -170 288 C-169.01 288.33 -168.02 288.66 -167 289 C-167 289.66 -167 290.32 -167 291 C-165.35 291 -163.7 291 -162 291 C-161.67 291.99 -161.34 292.98 -161 294 C-159.02 294.33 -157.04 294.66 -155 295 C-155 295.66 -155 296.32 -155 297 C-154.34 297 -153.68 297 -153 297 C-153 297.66 -153 298.32 -153 299 C-152.36191406 298.98839844 -151.72382813 298.97679687 -151.06640625 298.96484375 C-149.82697266 298.95130859 -149.82697266 298.95130859 -148.5625 298.9375 C-147.73878906 298.92589844 -146.91507812 298.91429687 -146.06640625 298.90234375 C-144 299 -144 299 -143 300 C-125.50520528 302.50060011 -107.62330693 302.23672377 -90 302.0625 C-64.09106481 301.85019221 -64.09106481 301.85019221 -52.62747192 302.6003418 C-43.05387647 303.22227839 -33.46486766 303.35928969 -23.875 303.5625 C-21.93358767 303.60584814 -19.99218135 303.64946657 -18.05078125 303.69335938 C-13.36725067 303.79867463 -8.68365507 303.90038184 -4 304 C-4.66 302.68 -5.32 301.36 -6 300 C-5.01 300 -4.02 300 -3 300 C-3 201.66 -3 103.32 -3 2 C-27.42 1.67 -51.84 1.34 -77 1 C-76.99476318 7.83050049 -76.98952637 14.66100098 -76.98413086 21.69848633 C-76.96809006 43.53898836 -76.95696148 65.37949069 -76.94893467 87.2199971 C-76.94768392 90.61093883 -76.94638961 94.00188055 -76.94506836 97.39282227 C-76.94480605 98.06791427 -76.94454374 98.74300628 -76.94427348 99.43855562 C-76.93991897 110.37789447 -76.93203262 121.31722808 -76.9228472 132.25656382 C-76.91350459 143.47647094 -76.90801798 154.69637544 -76.90591151 165.91628665 C-76.90460504 172.22037342 -76.9015232 178.5244483 -76.89426994 184.82853127 C-76.88750384 190.75700887 -76.88538426 196.68546963 -76.88689232 202.61395073 C-76.88661626 204.79448157 -76.88461463 206.97501295 -76.88079453 209.15554047 C-76.87584811 212.12351545 -76.87700528 215.09142612 -76.87974548 218.05940247 C-76.87683264 218.93001826 -76.8739198 219.80063405 -76.87091869 220.69763213 C-76.87933631 224.05115631 -76.93201935 226.79605805 -78 230 C-118.14729833 232.17744962 -118.14729833 232.17744962 -129.93359375 221.796875 C-130.43463623 221.31822998 -130.93567871 220.83958496 -131.4519043 220.34643555 C-133.11861142 218.8968393 -134.78855665 217.91740055 -136.734375 216.87890625 C-141.56621175 214.0988662 -143.97306915 210.24883578 -145.64453125 204.9609375 C-145.80308594 204.33445312 -145.96164062 203.70796875 -146.125 203.0625 C-146.558125 201.5465625 -146.558125 201.5465625 -147 200 C-147.99 199.67 -148.98 199.34 -150 199 C-153.0491919 195.22816725 -155.73393651 190.92217448 -156 186 C-155.5625 183.1875 -155.5625 183.1875 -155 181 C-152.58976311 183.41023689 -151.91087749 185.51150046 -150.6875 188.6875 C-148.63225402 193.77088945 -146.28625463 197.64793306 -143 202 C-142.71125 202.825 -142.4225 203.65 -142.125 204.5 C-140.63371874 207.81395836 -138.41378176 209.81123279 -135.796875 212.29296875 C-134.27936513 213.73460313 -132.84719451 215.26527432 -131.4375 216.8125 C-128.69189177 219.27650739 -126.50018904 219.9573905 -123 221 C-121.64377755 221.96873032 -120.30582947 222.96434215 -119 224 C-115.48804359 225.17065214 -112.5874991 225.19446108 -108.8828125 225.28125 C-108.18864227 225.29965942 -107.49447205 225.31806885 -106.77926636 225.33703613 C-104.56126251 225.39570047 -102.34318166 225.44852626 -100.125 225.5 C-97.21078577 225.56794965 -94.29679822 225.64168341 -91.3828125 225.71875 C-90.08746582 225.74904297 -88.79211914 225.77933594 -87.45751953 225.81054688 C-84 226 -84 226 -79 227 C-79 152.09 -79 77.18 -79 0 C-52.22100554 -0.86383853 -26.74958416 -0.95534229 0 0 Z " fill="#7D1A3F" transform="translate(436,122)"/>
<path d="M0 0 C135 0 135 0 147 6 C148.98867713 6.69971973 150.98608051 7.37664397 153 8 C149.57056481 9.18771723 147.62215325 8.80226223 144.25 7.5625 C143.05117188 7.13130859 143.05117188 7.13130859 141.828125 6.69140625 C141.22484375 6.46324219 140.6215625 6.23507813 140 6 C140 5.34 140 4.68 140 4 C139.01257813 4.01160156 138.02515625 4.02320313 137.0078125 4.03515625 C135.72648438 4.04417969 134.44515625 4.05320312 133.125 4.0625 C131.84882813 4.07410156 130.57265625 4.08570313 129.2578125 4.09765625 C126 4 126 4 124 3 C83.41 2.67 42.82 2.34 1 2 C1 102.32 1 202.64 1 306 C2.98 305.67 4.96 305.34 7 305 C9.36778109 304.91573348 11.73765737 304.88219794 14.10693359 304.88647461 C14.79055969 304.88632858 15.47418579 304.88618256 16.17852783 304.8860321 C18.41853099 304.88672392 20.65844903 304.89448178 22.8984375 304.90234375 C24.45927892 304.90421053 26.02012092 304.90563321 27.58096313 304.90663147 C31.6744348 304.91043617 35.76787057 304.92024884 39.86132812 304.93133545 C44.0442659 304.94159372 48.22720951 304.94613853 52.41015625 304.95117188 C60.60678724 304.96187306 68.80338915 304.97892472 77 305 C76.99907821 303.86655592 76.99815641 302.73311184 76.99720669 301.56532097 C76.97501711 273.99901841 76.95857897 246.432717 76.94818783 218.86640739 C76.94302932 205.53560881 76.93599507 192.2048181 76.92456055 178.87402344 C76.91460014 167.25628694 76.90814333 155.63855471 76.90591151 144.02081406 C76.90460671 137.8680971 76.90153541 131.71539235 76.89426994 125.56267929 C76.88748837 119.77290334 76.88538742 113.98314465 76.88689232 108.1933651 C76.88661696 106.06730874 76.8846245 103.94125182 76.88079453 101.8151989 C76.87582396 98.91395858 76.8770142 96.01278356 76.87974548 93.11154175 C76.87683264 92.26911922 76.8739198 91.4266967 76.87091869 90.55874622 C76.88187069 86.25848979 77.14179116 82.23546911 78 78 C85.77665999 77.1812523 93.49392266 76.7612138 101.3125 76.6875 C102.87967773 76.64399414 102.87967773 76.64399414 104.47851562 76.59960938 C110.67477847 76.54840059 113.99495327 77.03830138 119 81 C121.55200549 81.77242261 121.55200549 81.77242261 124.0625 82.0625 C128.00833033 82.73589021 130.69808466 83.64148904 134 86 C134.886875 86.433125 135.77375 86.86625 136.6875 87.3125 C139.70732656 89.51615722 140.03967138 91.45417125 141 95 C141.99 96.485 141.99 96.485 143 98 C142.67 98.99 142.34 99.98 142 101 C136.23779193 96.49044586 136.23779193 96.49044586 135 93.9375 C132.08778919 88.29509155 124.15940226 86.14567659 118.59765625 84.1015625 C105.85557871 80.20007947 92.14751772 80.62607227 79 80 C79 154.91 79 229.82 79 307 C52.93 307 26.86 307 0 307 C0 205.69 0 104.38 0 0 Z " fill="#7A1941" transform="translate(19,11)"/>
<path d="M0 0 C0 26.4 0 52.8 0 80 C-7.90839844 80.03738281 -15.81679688 80.07476562 -23.96484375 80.11328125 C-28.98244345 80.14356612 -34.0000079 80.17471749 -39.01757812 80.20898438 C-46.97728297 80.26326186 -54.93689517 80.31437399 -62.89672852 80.34643555 C-69.31591316 80.37249251 -75.734863 80.41291258 -82.15390205 80.46318626 C-84.59979895 80.47983866 -87.04573645 80.49136304 -89.49168205 80.49761391 C-92.92430972 80.50727235 -96.35633888 80.53535398 -99.78881836 80.56762695 C-100.79439285 80.56619186 -101.79996735 80.56475677 -102.83601379 80.5632782 C-109.11283136 80.64644007 -114.16368626 81.74438086 -120 84 C-121.03125 84.28875 -122.0625 84.5775 -123.125 84.875 C-126.93920888 86.36751652 -129.74148311 88.52352717 -133 91 C-133.33 89.68 -133.66 88.36 -134 87 C-132.68 87 -131.36 87 -130 87 C-130 85.68 -130 84.36 -130 83 C-126.8459526 80.89730173 -125.18202171 80.54261373 -121.5 80 C-117.04211389 79.33235728 -117.04211389 79.33235728 -112.60942364 78.51877785 C-106.20041655 77.2428177 -100.09720092 76.69689355 -93.5715332 76.68115234 C-92.59456985 76.67110672 -91.61760651 76.6610611 -90.61103821 76.65071106 C-87.42429116 76.62014639 -84.23762705 76.60291901 -81.05078125 76.5859375 C-78.82447102 76.56720431 -76.59816774 76.54762933 -74.37187195 76.5272522 C-68.54411937 76.47615222 -62.71634383 76.4364086 -56.88848877 76.39910889 C-49.87897316 76.35185157 -42.86956952 76.29034942 -35.86014557 76.23126221 C-25.2401428 76.14332015 -14.62015854 76.0733623 -4 76 C-3.505 40.36 -3.505 40.36 -3 4 C-25.29495189 3.93994697 -25.29495189 3.93994697 -47.58991528 3.89949226 C-55.56135112 3.88839653 -63.53274524 3.87429561 -71.50415039 3.84912109 C-77.81402718 3.82920334 -84.12387254 3.8162874 -90.4337799 3.81182301 C-93.7756592 3.80921288 -97.11744857 3.80306707 -100.45929909 3.78853989 C-104.18752067 3.77409172 -107.91555391 3.77201927 -111.64379883 3.77294922 C-112.75510162 3.76575867 -113.86640442 3.75856812 -115.01138306 3.75115967 C-116.02520554 3.753909 -117.03902802 3.75665833 -118.08357239 3.75949097 C-119.40680622 3.75672559 -119.40680622 3.75672559 -120.75677204 3.75390434 C-123.2843952 3.8569012 -123.2843952 3.8569012 -126 6 C-128.60245498 6.14221065 -131.09117684 6.18802932 -133.6875 6.125 C-134.38939453 6.11597656 -135.09128906 6.10695313 -135.81445312 6.09765625 C-137.54311525 6.07413704 -139.27160145 6.03826713 -141 6 C-141 6.66 -141 7.32 -141 8 C-141.6290625 8.09796875 -142.258125 8.1959375 -142.90625 8.296875 C-148.02958239 9.191915 -152.35452345 10.36314523 -156.91796875 12.86328125 C-160.13401958 14.6191364 -163.4785298 16.11247225 -166.80078125 17.65625 C-169.2375201 19.14512774 -170.37770517 20.6817642 -172 23 C-172.7425 23.433125 -173.485 23.86625 -174.25 24.3125 C-176.87143467 25.92110764 -178.28965202 27.3625436 -180.3125 29.625 C-182.93830467 32.37226259 -184.64368279 33.48840856 -188.4375 33.9375 C-190.2009375 33.9684375 -190.2009375 33.9684375 -192 34 C-188.70307417 26.46652448 -181.70135682 22.58895748 -174.52734375 19.26171875 C-171.12379103 17.56257265 -168.09614405 15.44521013 -165.0078125 13.234375 C-162.98444163 11.99043493 -161.32063906 11.43707103 -159 11 C-159 10.34 -159 9.68 -159 9 C-155.58415928 7.8516942 -152.16718858 6.70678792 -148.75 5.5625 C-147.78191406 5.23701172 -146.81382812 4.91152344 -145.81640625 4.57617188 C-144.88183594 4.26357422 -143.94726562 3.95097656 -142.984375 3.62890625 C-142.12553711 3.34088135 -141.26669922 3.05285645 -140.38183594 2.75610352 C-136.28662652 1.456097 -132.79652592 0.87034795 -128.47651672 0.84178162 C-127.35338074 0.8319928 -126.23024475 0.82220398 -125.07307434 0.81211853 C-123.84537827 0.80636307 -122.61768219 0.8006076 -121.3527832 0.79467773 C-120.05658051 0.78477814 -118.76037781 0.77487854 -117.42489624 0.76467896 C-113.87354598 0.7376667 -110.32218249 0.71663654 -106.77078652 0.69667697 C-103.05698002 0.67479029 -99.34321408 0.64741374 -95.62944031 0.62062073 C-88.59717597 0.57072242 -81.56488902 0.52577483 -74.53258055 0.48259836 C-66.53008281 0.43322201 -58.52762617 0.3782969 -50.52516806 0.32291877 C-3.80282459 0 -3.80282459 0 0 0 Z " fill="#9B0941" transform="translate(436,11)"/>
<path d="M0 0 C0.99 0.495 0.99 0.495 2 1 C-0.05842596 9.38712689 -2.20408748 16.32183625 -9 22 C-10.33236645 22.66859693 -11.66553768 23.33559609 -13 24 C-13.33 24.66 -13.66 25.32 -14 26 C-14.99 26.33 -15.98 26.66 -17 27 C-18.03789581 28.64333504 -19.03567924 30.31243867 -20 32 C-23.675798 36.57665575 -29.49605773 37.02095255 -35 38 C-38.9222139 38.35835936 -42.79894208 38.38246847 -46.73535156 38.34057617 C-47.83925735 38.34101425 -48.94316315 38.34145233 -50.08052063 38.34190369 C-53.68407661 38.33983447 -57.28715156 38.31659195 -60.890625 38.29296875 C-63.40695949 38.28736616 -65.92329728 38.2830992 -68.43963623 38.28010559 C-74.3573264 38.2698703 -80.27484248 38.24629149 -86.19246173 38.21605712 C-94.78764957 38.17310948 -103.38289631 38.1575873 -111.97816467 38.13863373 C-123.98558295 38.1096464 -135.99255955 38.05212233 -148 38 C-148 62.42 -148 86.84 -148 112 C-126.12809671 111.84340797 -126.12809671 111.84340797 -104.25627041 111.67741489 C-96.4349432 111.61644126 -88.61361361 111.55690119 -80.79223633 111.50268555 C-73.9387406 111.45517395 -67.08529789 111.40265399 -60.23186302 111.34705925 C-57.61517773 111.32665539 -54.99847872 111.30793906 -52.38176918 111.29092598 C-48.72101504 111.26683858 -45.0603553 111.23678962 -41.3996582 111.20532227 C-39.77154205 111.19668907 -39.77154205 111.19668907 -38.11053467 111.18788147 C-36.61091942 111.17319824 -36.61091942 111.17319824 -35.08100891 111.15821838 C-34.2154453 111.15176583 -33.34988169 111.14531328 -32.45808887 111.1386652 C-29.89038441 110.99381639 -27.51080831 110.54234849 -25 110 C-23.55041516 109.88501006 -22.09785661 109.80253052 -20.64453125 109.75390625 C-19.85755859 109.72103516 -19.07058594 109.68816406 -18.25976562 109.65429688 C-16.61669351 109.59266528 -14.97345092 109.5354339 -13.33007812 109.48242188 C-8.6859768 109.48443734 -8.6859768 109.48443734 -5 107 C-3.33242009 106.45554229 -1.6397565 105.9862685 0.0625 105.5625 C3.75916701 104.59942096 7.42517977 103.60663865 11.0625 102.4375 C11.77535156 102.20933594 12.48820313 101.98117187 13.22265625 101.74609375 C15.20749186 101.04470683 15.20749186 101.04470683 17 99 C17.99 99.66 18.98 100.32 20 101 C14.35672009 104.76218661 8.66998516 106.33250371 2.109375 107.97265625 C-0.97020293 108.69099016 -0.97020293 108.69099016 -2.32398796 110.55827808 C-4.80966343 112.69648039 -6.70402136 112.24106461 -9.92556763 112.09489441 C-16.49683481 111.9424451 -22.69245103 112.58859004 -29.19091797 113.48168945 C-42.48452656 115.14902916 -55.56453784 115.38884631 -68.9453125 115.29296875 C-71.30711594 115.2873509 -73.66892296 115.28309121 -76.0307312 115.28010559 C-82.1493959 115.26882876 -88.26783575 115.23951652 -94.38641357 115.20599365 C-101.77997188 115.16941996 -109.17360674 115.15604964 -116.56723022 115.13863373 C-127.71164163 115.10986329 -138.85556292 115.05225769 -150 115 C-150 88.93 -150 62.86 -150 36 C-142.11480469 35.97421875 -134.22960937 35.9484375 -126.10546875 35.921875 C-121.09697311 35.89669556 -116.0885372 35.87035404 -111.08007812 35.83984375 C-103.13811281 35.79157342 -95.19625477 35.74750412 -87.25415039 35.72900391 C-80.84787612 35.71381131 -74.44196478 35.67931858 -68.03585243 35.63169098 C-65.59719314 35.61690419 -63.15848203 35.60896055 -60.71977806 35.60811615 C-57.29220693 35.60573671 -53.86563085 35.57857656 -50.43823242 35.54589844 C-49.43984848 35.5509288 -48.44146454 35.55595917 -47.41282654 35.56114197 C-37.81735493 35.42048129 -29.7427176 32.61347026 -22 27 C-21.01 26.67 -20.02 26.34 -19 26 C-18.01 24.515 -18.01 24.515 -17 23 C-16.22914063 22.58363281 -15.45828125 22.16726563 -14.6640625 21.73828125 C-11.22829763 19.49646986 -9.46074201 16.62178211 -7.375 13.1875 C-6.80265625 12.28161133 -6.80265625 12.28161133 -6.21875 11.35742188 C-3.91795337 7.67218038 -1.88460498 3.91925813 0 0 Z " fill="#910F40" transform="translate(169,313)"/>
<path d="M0 0 C0.33 0 0.66 0 1 0 C1 99.99 1 199.98 1 303 C-130.02648728 304.48893736 -130.02648728 304.48893736 -139.640625 300.8046875 C-142.47624202 299.83757309 -145.30931489 299.31984568 -148.25 298.75 C-162.42378051 295.54893665 -175.00453178 286.29683912 -185 276 C-185.928125 275.071875 -186.85625 274.14375 -187.8125 273.1875 C-188.8953125 272.1046875 -188.8953125 272.1046875 -190 271 C-189.67 270.34 -189.34 269.68 -189 269 C-187.35 269.66 -185.7 270.32 -184 271 C-184 272.32 -184 273.64 -184 275 C-183.278125 275.061875 -182.55625 275.12375 -181.8125 275.1875 C-178.1613725 276.24227017 -176.65805889 278.34194111 -174 281 C-171.32209104 281.87238858 -171.32209104 281.87238858 -169 282 C-169 282.66 -169 283.32 -169 284 C-168.34 284 -167.68 284 -167 284 C-167 284.66 -167 285.32 -167 286 C-166.01 286.33 -165.02 286.66 -164 287 C-164 287.66 -164 288.32 -164 289 C-162.35 289 -160.7 289 -159 289 C-158.67 289.99 -158.34 290.98 -158 292 C-156.02 292.33 -154.04 292.66 -152 293 C-152 293.66 -152 294.32 -152 295 C-151.34 295 -150.68 295 -150 295 C-150 295.66 -150 296.32 -150 297 C-149.36191406 296.98839844 -148.72382813 296.97679687 -148.06640625 296.96484375 C-146.82697266 296.95130859 -146.82697266 296.95130859 -145.5625 296.9375 C-144.73878906 296.92589844 -143.91507812 296.91429687 -143.06640625 296.90234375 C-141 297 -141 297 -140 298 C-122.50520528 300.50060011 -104.62330693 300.23672377 -87 300.0625 C-61.09106481 299.85019221 -61.09106481 299.85019221 -49.62747192 300.6003418 C-40.05387647 301.22227839 -30.46486766 301.35928969 -20.875 301.5625 C-18.93358767 301.60584814 -16.99218135 301.64946657 -15.05078125 301.69335938 C-10.36725067 301.79867463 -5.68365507 301.90038184 -1 302 C-1.66 300.68 -2.32 299.36 -3 298 C-2.01 298 -1.02 298 0 298 C0 199.66 0 101.32 0 0 Z " fill="#9D0941" transform="translate(433,124)"/>
<path d="M0 0 C0.66 0 1.32 0 2 0 C2.18757267 14.99978218 2.35038005 29.99979267 2.5 45 C2.51187725 46.18965111 2.5237545 47.37930222 2.53599167 48.60500336 C3.08827712 104.77761271 3.08482905 160.95016228 3.0625 217.125 C3.06207577 218.22359093 3.06165154 219.32218185 3.06121445 220.45406342 C3.05001845 248.96938378 3.02971987 277.48469304 3 306 C2.01 306 1.02 306 0 306 C0 205.02 0 104.04 0 0 Z " fill="#FCE2F3" transform="translate(436,122)"/>
<path d="M0 0 C123 0 123 0 125 1 C127.37123246 1.23029956 129.74741943 1.41119942 132.125 1.5625 C133.40632812 1.64628906 134.68765625 1.73007813 136.0078125 1.81640625 C137.48894531 1.90728516 137.48894531 1.90728516 139 2 C139 2.66 139 3.32 139 4 C144.78049511 5.35247024 144.78049511 5.35247024 150.625 6.3671875 C161.23393776 7.87834433 170.41248113 12.41248113 178 20 C178 20.66 178 21.32 178 22 C176.68 22 175.36 22 174 22 C174 21.34 174 20.68 174 20 C173.278125 19.731875 172.55625 19.46375 171.8125 19.1875 C169.01877538 18.00792738 166.59633766 16.5578026 164 15 C162.63875 14.505 162.63875 14.505 161.25 14 C160.5075 13.67 159.765 13.34 159 13 C158.67 12.01 158.34 11.02 158 10 C157.319375 9.90203125 156.63875 9.8040625 155.9375 9.703125 C148.57159675 8.56689524 141.51610007 6.89985964 134.34765625 4.90234375 C90.81561466 -4.13260828 45.45809392 2.38325943 1 2 C1.33 101.66 1.66 201.32 2 304 C1.34 304 0.68 304 0 304 C0 203.68 0 103.36 0 0 Z " fill="#A00640" transform="translate(20,13)"/>
<path d="M0 0 C0.66 0 1.32 0 2 0 C2 101.31 2 202.62 2 307 C1.34 307 0.68 307 0 307 C-0.00423194 305.78656764 -0.00846388 304.57313528 -0.01282406 303.32293224 C-0.11452252 274.21394326 -0.22040228 245.10497191 -0.33111694 215.99601595 C-0.3448789 212.37681999 -0.35860714 208.7576239 -0.37231445 205.13842773 C-0.37504276 204.41821282 -0.37777106 203.6979979 -0.38058204 202.95595828 C-0.42410198 191.44660759 -0.46491877 179.93724892 -0.50465261 168.4278846 C-0.54579218 156.52968738 -0.59003061 144.63150428 -0.63687855 132.73332816 C-0.66296345 126.08764732 -0.68773315 119.44196867 -0.70907402 112.79627037 C-0.82890707 75.85565285 -1.28031445 38.93320638 -2 2 C-1.34 2 -0.68 2 0 2 C0 1.34 0 0.68 0 0 Z " fill="#FBC4DF" transform="translate(17,11)"/>
<path d="M0 0 C0 26.4 0 52.8 0 80 C-7.90839844 80.03738281 -15.81679688 80.07476562 -23.96484375 80.11328125 C-28.98244345 80.14356612 -34.0000079 80.17471749 -39.01757812 80.20898438 C-46.97728297 80.26326186 -54.93689517 80.31437399 -62.89672852 80.34643555 C-69.31591316 80.37249251 -75.734863 80.41291258 -82.15390205 80.46318626 C-84.59979895 80.47983866 -87.04573645 80.49136304 -89.49168205 80.49761391 C-92.92430972 80.50727235 -96.35633888 80.53535398 -99.78881836 80.56762695 C-100.79439285 80.56619186 -101.79996735 80.56475677 -102.83601379 80.5632782 C-109.11283136 80.64644007 -114.16368626 81.74438086 -120 84 C-121.03125 84.28875 -122.0625 84.5775 -123.125 84.875 C-126.93920888 86.36751652 -129.74148311 88.52352717 -133 91 C-133.33 89.68 -133.66 88.36 -134 87 C-132.68 87 -131.36 87 -130 87 C-130 85.68 -130 84.36 -130 83 C-126.76219191 80.84146127 -124.86131242 80.49628699 -121.0625 79.9375 C-117.05148849 79.36744103 -117.05148849 79.36744103 -113.10680771 78.47846317 C-110.79755606 77.9540243 -108.74825966 77.87701813 -106.38092041 77.87974548 C-105.45827896 77.87837082 -104.53563751 77.87699615 -103.58503723 77.87557983 C-102.58018784 77.87917511 -101.57533844 77.88277039 -100.54003906 77.88647461 C-98.94445412 77.88625557 -98.94445412 77.88625557 -97.31663513 77.8860321 C-93.79961103 77.88672894 -90.28263985 77.89451067 -86.765625 77.90234375 C-84.32753529 77.90420874 -81.8894452 77.90563226 -79.45135498 77.90663147 C-73.03325364 77.91045024 -66.61517492 77.9202751 -60.19708252 77.93133545 C-52.4969886 77.94336145 -44.79688712 77.94795486 -37.0967865 77.95378876 C-25.39784193 77.96348716 -13.698947 77.98264823 -2 78 C-2 53.25 -2 28.5 -2 3 C-10.394375 3.020625 -18.78875 3.04125 -27.4375 3.0625 C-57.30135961 3.09776042 -87.14276457 2.63907502 -117 2 C-117 1.67 -117 1.34 -117 1 C-101.89274928 0.86956396 -86.78549814 0.73917688 -71.6782465 0.60884857 C-64.66415957 0.5483378 -57.65007279 0.48781082 -50.63598633 0.42724609 C-43.87332123 0.36885237 -37.11065576 0.31050327 -30.34799004 0.25218201 C-27.76147893 0.22986851 -25.17496795 0.20753978 -22.58845711 0.18519592 C-18.97962604 0.15402319 -15.37079453 0.12290348 -11.76196289 0.09179688 C-10.1403273 0.07777077 -10.1403273 0.07777077 -8.4859314 0.0634613 C-7.50851486 0.05504715 -6.53109833 0.046633 -5.52406311 0.03796387 C-4.24230997 0.02690235 -4.24230997 0.02690235 -2.93466282 0.01561737 C-1.9564599 0.00772093 -0.97823479 0 0 0 Z " fill="#7C173F" transform="translate(436,11)"/>
<path d="M0 0 C1.04478516 -0.02900391 2.08957031 -0.05800781 3.16601562 -0.08789062 C9.36227847 -0.13909941 12.68245327 0.35080138 17.6875 4.3125 C20.23950549 5.08492261 20.23950549 5.08492261 22.75 5.375 C26.69583033 6.04839021 29.38558466 6.95398904 32.6875 9.3125 C33.574375 9.745625 34.46125 10.17875 35.375 10.625 C38.39482656 12.82865722 38.72717138 14.76667125 39.6875 18.3125 C40.6775 19.7975 40.6775 19.7975 41.6875 21.3125 C41.3575 22.3025 41.0275 23.2925 40.6875 24.3125 C34.92529193 19.80294586 34.92529193 19.80294586 33.6875 17.25 C30.77528919 11.60759155 22.84690226 9.45817659 17.28515625 7.4140625 C4.54307871 3.51257947 -9.16498228 3.93857227 -22.3125 3.3125 C-22.6425 77.8925 -22.9725 152.4725 -23.3125 229.3125 C-46.7425 229.3125 -70.1725 229.3125 -94.3125 229.3125 C-94.3125 228.9825 -94.3125 228.6525 -94.3125 228.3125 C-71.2125 228.3125 -48.1125 228.3125 -24.3125 228.3125 C-24.31773682 221.6491748 -24.32297363 214.98584961 -24.32836914 208.12060547 C-24.34491616 186.14004106 -24.35602658 164.1594764 -24.36431217 142.17890739 C-24.36947068 128.84810881 -24.37650493 115.5173181 -24.38793945 102.18652344 C-24.39789986 90.56878694 -24.40435667 78.95105471 -24.40658849 67.33331406 C-24.40789329 61.1805971 -24.41096459 55.02789235 -24.41823006 48.87517929 C-24.42501163 43.08540334 -24.42711258 37.29564465 -24.42560768 31.5058651 C-24.42588304 29.37980874 -24.4278755 27.25375182 -24.43170547 25.1276989 C-24.43667604 22.22645858 -24.4354858 19.32528356 -24.43275452 16.42404175 C-24.43566736 15.58161922 -24.4385802 14.7391967 -24.44158131 13.87124622 C-24.43062931 9.57098979 -24.17070884 5.54796911 -23.3125 1.3125 C-15.53584001 0.4937523 -7.81857734 0.0737138 0 0 Z " fill="#8C1041" transform="translate(120.3125,87.6875)"/>
<path d="M0 0 C0.33 0 0.66 0 1 0 C1.02279933 28.73999697 1.04050282 57.47999287 1.05106533 86.2199971 C1.05231608 89.61093883 1.05361039 93.00188055 1.05493164 96.39282227 C1.05519395 97.06791427 1.05545626 97.74300628 1.05572652 98.43855562 C1.06008103 109.37789447 1.06796738 120.31722808 1.0771528 131.25656382 C1.08649541 142.47647094 1.09198202 153.69637544 1.09408849 164.91628665 C1.09539496 171.22037342 1.0984768 177.5244483 1.10573006 183.82853127 C1.11249616 189.75700887 1.11461574 195.68546963 1.11310768 201.61395073 C1.11338374 203.79448157 1.11538537 205.97501295 1.11920547 208.15554047 C1.12415189 211.12351545 1.12299472 214.09142612 1.12025452 217.05940247 C1.12316736 217.93001826 1.1260802 218.80063405 1.12908131 219.69763213 C1.12066369 223.05115631 1.06798065 225.79605805 0 229 C-40.14729833 231.17744962 -40.14729833 231.17744962 -51.93359375 220.796875 C-52.68515747 220.07890747 -52.68515747 220.07890747 -53.4519043 219.34643555 C-55.11861142 217.8968393 -56.78855665 216.91740055 -58.734375 215.87890625 C-63.56621175 213.0988662 -65.97306915 209.24883578 -67.64453125 203.9609375 C-67.80308594 203.33445312 -67.96164062 202.70796875 -68.125 202.0625 C-68.558125 200.5465625 -68.558125 200.5465625 -69 199 C-69.99 198.67 -70.98 198.34 -72 198 C-75.0491919 194.22816725 -77.73393651 189.92217448 -78 185 C-77.5625 182.1875 -77.5625 182.1875 -77 180 C-74.58976311 182.41023689 -73.91087749 184.51150046 -72.6875 187.6875 C-70.63225402 192.77088945 -68.28625463 196.64793306 -65 201 C-64.71125 201.825 -64.4225 202.65 -64.125 203.5 C-62.63371874 206.81395836 -60.41378176 208.81123279 -57.796875 211.29296875 C-56.27936513 212.73460313 -54.84719451 214.26527432 -53.4375 215.8125 C-50.69189177 218.27650739 -48.50018904 218.9573905 -45 220 C-43.64377755 220.96873032 -42.30582947 221.96434215 -41 223 C-28.33508784 227.22163739 -14.34511645 224.63932118 -1 225 C-0.67 150.75 -0.34 76.5 0 0 Z " fill="#8D103F" transform="translate(358,123)"/>
<path d="M0 0 C30.03 0 60.06 0 91 0 C91.495 12.375 91.495 12.375 92 25 C92.88089101 33.74114925 94.35776253 41.88623611 96.59985352 50.33813477 C97.96256468 55.54728124 98.74171546 60.62768149 99 66 C98.01 66 97.02 66 96 66 C93.9817811 58.84103484 92.72021008 52.05027812 92.24609375 44.62890625 C91.95626783 41.5328294 91.12777855 38.88993255 90 36 C87.77638932 24.88194661 89 13.33823423 89 2 C60.29 2 31.58 2 2 2 C1.67 9.26 1.34 16.52 1 24 C0.34 24.33 -0.32 24.66 -1 25 C-1.02900455 21.3958502 -1.04680018 17.79173038 -1.0625 14.1875 C-1.07087891 13.16333984 -1.07925781 12.13917969 -1.08789062 11.08398438 C-1.09111328 10.10107422 -1.09433594 9.11816406 -1.09765625 8.10546875 C-1.10289307 7.19949951 -1.10812988 6.29353027 -1.11352539 5.36010742 C-1 3 -1 3 0 0 Z " fill="#913158" transform="translate(182,235)"/>
<path d="M0 0 C-3.39147734 2.26098489 -5.82330461 2.7314011 -9.8125 3.5 C-11.01519531 3.7371875 -12.21789062 3.974375 -13.45703125 4.21875 C-14.97043149 4.48447627 -16.48489818 4.74415394 -18 5 C-18.991707 5.17349472 -19.983414 5.34698944 -21.00517273 5.52574158 C-29.56474311 6.90089325 -37.60845111 7.09141716 -46.25 6.66015625 C-49.07523721 6.54204649 -51.90086634 6.4351085 -54.7265625 6.32861328 C-55.4671994 6.29977145 -56.2078363 6.27092962 -56.97091675 6.2412138 C-66.18614676 5.89491178 -75.40444124 5.79107846 -84.625 5.68359375 C-85.93588593 5.66768126 -85.93588593 5.66768126 -87.27325439 5.6514473 C-92.60954172 5.58672477 -97.94586929 5.5264094 -103.28222656 5.46777344 C-107.89651151 5.41637465 -112.51075302 5.36132447 -117.125 5.30664062 C-126.08329574 5.20098368 -135.04163016 5.09916174 -144 5 C-144 4.34 -144 3.68 -144 3 C-142.71723175 2.99413376 -141.4344635 2.98826752 -140.11282349 2.98222351 C-127.90640542 2.92451669 -115.70015738 2.85151482 -103.49391365 2.76428509 C-97.22154193 2.71993208 -90.94922996 2.6806032 -84.67675781 2.65356445 C-78.60113878 2.62717593 -72.52575428 2.58653575 -66.45028305 2.53681374 C-64.15520058 2.52038134 -61.86007777 2.50872259 -59.56494522 2.50238609 C-46.19248005 2.4618052 -33.14407166 1.84110129 -19.89067268 -0.04678059 C-13.06242196 -0.97323802 -6.83098083 -0.92419841 0 0 Z " fill="#F5B0CF" transform="translate(163,425)"/>
<path d="M0 0 C0.93672043 -0.00137466 1.87344086 -0.00274933 2.83854675 -0.00416565 C3.86928818 -0.00057037 4.9000296 0.0030249 5.96200562 0.00672913 C7.044944 0.0065831 8.12788239 0.00643707 9.24363708 0.00628662 C12.83646624 0.00698536 16.42924407 0.014776 20.02206421 0.02259827 C22.5078529 0.02446258 24.99364196 0.02588642 27.47943115 0.02688599 C33.36196568 0.03031887 39.24448114 0.03820679 45.12700784 0.04823548 C52.48004417 0.0604996 59.83308278 0.06587825 67.18612671 0.07142639 C80.3059278 0.08216184 93.42571358 0.09904566 106.54550171 0.12025452 C107.04050171 1.11025452 107.04050171 1.11025452 107.54550171 2.12025452 C101.71331541 3.12490154 96.05463847 3.26832743 90.14389038 3.26551819 C89.12195587 3.2688768 88.10002136 3.27223541 87.04711914 3.2756958 C83.68589041 3.2851577 80.32471166 3.28714594 76.96347046 3.28822327 C74.62414021 3.29143712 72.28481017 3.29480129 69.94548035 3.29830933 C65.05246514 3.30428718 60.15946757 3.3061504 55.26644897 3.30555725 C48.98357951 3.30545524 42.70082207 3.31915385 36.41797924 3.33632946 C31.5925799 3.34741697 26.76720803 3.34947753 21.94179726 3.34894753 C19.62405318 3.35013077 17.30630845 3.3545717 14.98857689 3.36227989 C11.7590164 3.37202226 8.52970444 3.36922556 5.30014038 3.36317444 C3.85468086 3.3716037 3.85468086 3.3716037 2.38002014 3.38020325 C1.50390076 3.37600876 0.62778137 3.37181427 -0.27488708 3.36749268 C-1.41994327 3.36830983 -1.41994327 3.36830983 -2.5881319 3.36914349 C-4.45449829 3.12025452 -4.45449829 3.12025452 -6.45449829 1.12025452 C-4.07893535 -0.06752695 -2.6502567 -0.00299126 0 0 Z " fill="#FCDCF0" transform="translate(329.4544982910156,90.87974548339844)"/>
<path d="M0 0 C2.475 0.99 2.475 0.99 5 2 C5 3.32 5 4.64 5 6 C5.721875 6.061875 6.44375 6.12375 7.1875 6.1875 C10.8386275 7.24227017 12.34194111 9.34194111 15 12 C17.67790896 12.87238858 17.67790896 12.87238858 20 13 C20 13.66 20 14.32 20 15 C20.66 15 21.32 15 22 15 C22 15.66 22 16.32 22 17 C22.99 17.33 23.98 17.66 25 18 C25 18.66 25 19.32 25 20 C26.65 20 28.3 20 30 20 C30.33 20.99 30.66 21.98 31 23 C32.98 23.33 34.96 23.66 37 24 C37 24.66 37 25.32 37 26 C37.66 26 38.32 26 39 26 C39 26.66 39 27.32 39 28 C39.63808594 27.98839844 40.27617187 27.97679687 40.93359375 27.96484375 C41.75988281 27.95582031 42.58617187 27.94679688 43.4375 27.9375 C44.26121094 27.92589844 45.08492188 27.91429687 45.93359375 27.90234375 C48 28 48 28 49 29 C50.55920143 29.20603598 52.12687243 29.34841494 53.6953125 29.46484375 C54.7073877 29.5417041 55.71946289 29.61856445 56.76220703 29.69775391 C57.87192871 29.77687012 58.98165039 29.85598633 60.125 29.9375 C61.83018799 30.06390869 61.83018799 30.06390869 63.56982422 30.19287109 C77.70656438 31.22512598 91.85327914 32.11707201 106 33 C102.3168976 35.33747593 99.14360216 35.24427164 94.84765625 35.23046875 C94.15167831 35.23001053 93.45570038 35.22955231 92.7386322 35.2290802 C91.26348163 35.22606307 89.78833411 35.21819285 88.31323242 35.20581055 C86.10127912 35.18781548 83.88975251 35.18529942 81.67773438 35.18554688 C58.03273755 35.12842132 58.03273755 35.12842132 49.359375 31.8046875 C46.52375798 30.83757309 43.69068511 30.31984568 40.75 29.75 C26.57621949 26.54893665 13.99546822 17.29683912 4 7 C3.071875 6.071875 2.14375 5.14375 1.1875 4.1875 C0.465625 3.465625 -0.25625 2.74375 -1 2 C-0.67 1.34 -0.34 0.68 0 0 Z " fill="#971E4C" transform="translate(244,393)"/>
<path d="M0 0 C0.33 0 0.66 0 1 0 C1 74.91 1 149.82 1 227 C-35 226 -35 226 -41 223 C-40.67 222.01 -40.34 221.02 -40 220 C-35.09303768 220.58416218 -32.69011637 221.65494181 -28 224 C-18.76 224.33 -9.52 224.66 0 225 C0 150.75 0 76.5 0 0 Z " fill="#FEE5F3" transform="translate(355,122)"/>
<path d="M0 0 C15.43098929 -0.07051379 30.8619663 -0.12319342 46.29307938 -0.15543652 C53.46025269 -0.1708147 60.62732511 -0.19172774 67.79443359 -0.22631836 C74.0513707 -0.25650146 80.30823463 -0.27564046 86.56524253 -0.28226548 C89.86916247 -0.28612962 93.1728281 -0.29666358 96.4766922 -0.31719017 C135.09140093 -0.54730987 135.09140093 -0.54730987 147 6 C148.98867713 6.69971973 150.98608051 7.37664397 153 8 C149.57056481 9.18771723 147.62215325 8.80226223 144.25 7.5625 C143.05117188 7.13130859 143.05117188 7.13130859 141.828125 6.69140625 C141.22484375 6.46324219 140.6215625 6.23507813 140 6 C140 5.34 140 4.68 140 4 C139.01257813 4.01160156 138.02515625 4.02320313 137.0078125 4.03515625 C135.72648438 4.04417969 134.44515625 4.05320312 133.125 4.0625 C131.84882813 4.07410156 130.57265625 4.08570313 129.2578125 4.09765625 C126 4 126 4 124 3 C122.36580448 2.89543024 120.72743143 2.8534542 119.0899353 2.84178162 C118.05224503 2.8319928 117.01455475 2.82220398 115.94541931 2.81211853 C114.80246902 2.80636307 113.65951874 2.8006076 112.48193359 2.79467773 C111.28195236 2.78477814 110.08197113 2.77487854 108.84562683 2.76467896 C105.55040107 2.73845742 102.25519998 2.71660936 98.95993376 2.69667697 C95.51790967 2.67483227 92.07592996 2.64743618 88.63394165 2.62062073 C82.11395294 2.57067329 75.59393962 2.52574209 69.07390273 2.48259836 C61.65196107 2.43324349 54.23006393 2.37831889 46.80816531 2.32291877 C31.538818 2.20906725 16.26942977 2.10223513 1 2 C0.67 1.34 0.34 0.68 0 0 Z " fill="#8B2A50" transform="translate(19,11)"/>
<path d="M0 0 C1.98 0.99 1.98 0.99 4 2 C-1.64327991 5.76218661 -7.33001484 7.33250371 -13.890625 8.97265625 C-16.97032867 9.69060317 -16.97032867 9.69060317 -18.32165527 11.55828857 C-20.81594228 13.70090089 -22.73327403 13.24059634 -25.96289062 13.09472656 C-32.33905637 12.94696089 -38.29563633 13.58619303 -44.59375 14.484375 C-60.45042543 16.5082909 -76.22747193 16.38072965 -92.17993164 16.26428223 C-95.25173817 16.24537234 -98.32348324 16.24117899 -101.39533997 16.23744965 C-122.61013307 16.20899265 -143.79844717 15.73258019 -165 15 C-165 14.67 -165 14.34 -165 14 C-164.4338435 13.99668985 -163.867687 13.99337971 -163.28437424 13.98996925 C-149.46042618 13.90848137 -135.63658588 13.81618527 -121.8127861 13.71247292 C-115.12749053 13.66251163 -108.44221035 13.61630784 -101.75683594 13.578125 C-95.29878178 13.54110923 -88.84085565 13.49470574 -82.38291168 13.44193649 C-79.9255321 13.42347885 -77.46812517 13.40833946 -75.01070404 13.39665604 C-71.55485571 13.37964521 -68.09929511 13.35057548 -64.64355469 13.31884766 C-63.63941528 13.31668747 -62.63527588 13.31452728 -61.60070801 13.31230164 C-55.49354848 13.24120089 -49.71144164 12.58929728 -43.70775223 11.45985985 C-38.83069473 10.63158505 -33.92376732 10.57091497 -28.98828125 10.43359375 C-24.52386168 10.44039 -24.52386168 10.44039 -21 8 C-19.33242009 7.45554229 -17.6397565 6.9862685 -15.9375 6.5625 C-12.22301689 5.59350441 -8.53399237 4.60039003 -4.875 3.4375 C-3.78832031 3.09525391 -3.78832031 3.09525391 -2.6796875 2.74609375 C-0.79640149 2.12269784 -0.79640149 2.12269784 0 0 Z " fill="#9B2653" transform="translate(185,412)"/>
<path d="M0 0 C1.29371448 3.88114345 0.26321142 6.56009559 -0.75 10.375 C-4.76225999 26.61584726 -6.31947978 42.66457792 -6.7097168 59.37841797 C-6.73590088 60.48588379 -6.76208496 61.59334961 -6.7890625 62.734375 C-6.81540771 64.22275879 -6.81540771 64.22275879 -6.84228516 65.74121094 C-7 68 -7 68 -8 69 C-10.7998972 69.09519368 -13.57506174 69.12553944 -16.37524414 69.11352539 C-17.69219521 69.11374443 -17.69219521 69.11374443 -19.03575134 69.1139679 C-21.95224435 69.11326844 -24.86867433 69.10547455 -27.78515625 69.09765625 C-29.80154892 69.09579218 -31.81794204 69.09436823 -33.83433533 69.09336853 C-39.15265138 69.08954244 -44.4709403 69.07971139 -49.78924561 69.06866455 C-55.21170688 69.05845238 -60.63417252 69.05387133 -66.05664062 69.04882812 C-76.70443903 69.0380892 -87.35221726 69.02101169 -98 69 C-99.11352539 60.47209821 -99.11352539 60.47209821 -99.20532227 56.6953125 C-99.22526749 55.95514893 -99.24521271 55.21498535 -99.26576233 54.45239258 C-99.28247482 53.68435303 -99.29918732 52.91631348 -99.31640625 52.125 C-99.33718735 51.31506592 -99.35796844 50.50513184 -99.37937927 49.6706543 C-99.44413656 47.11384576 -99.50341194 44.55694519 -99.5625 42 C-99.60575566 40.25389719 -99.64937204 38.50780328 -99.69335938 36.76171875 C-99.79974083 32.50790391 -99.90121018 28.25399764 -100 24 C-99.34 24 -98.68 24 -98 24 C-97.82543837 27.0205397 -97.6604997 30.04120154 -97.5 33.0625 C-97.45230469 33.87138672 -97.40460938 34.68027344 -97.35546875 35.51367188 C-96.79490299 46.36462343 -97 57.08672245 -97 68 C-67.96 68 -38.92 68 -9 68 C-9 60.08 -9 52.16 -9 44 C-8.42038217 32.21443737 -8.42038217 32.21443737 -7.05078125 28.2578125 C-5.44444046 23.27755891 -4.91271252 18.16493078 -4.23242188 12.98828125 C-3.53215027 8.12120018 -2.51694362 4.31876676 0 0 Z " fill="#891E47" transform="translate(280,135)"/>
<path d="M0 0 C15.87228054 -0.02333814 31.74455647 -0.04098369 47.6168499 -0.05181217 C54.98627165 -0.05697318 62.35568274 -0.06401217 69.72509766 -0.07543945 C76.146666 -0.08539224 82.56822664 -0.09185485 88.98980248 -0.09408849 C92.39142379 -0.09539459 95.79302304 -0.09847406 99.1946373 -0.10573006 C102.98768189 -0.11294482 106.78068016 -0.11399075 110.57373047 -0.11352539 C111.70733002 -0.11712067 112.84092957 -0.12071594 114.00888062 -0.12442017 C115.03815674 -0.1230455 116.06743286 -0.12167084 117.12789917 -0.12025452 C118.02572554 -0.12117631 118.9235519 -0.1220981 119.84858513 -0.12304783 C122 0 122 0 124 1 C126.37123246 1.23029956 128.74741943 1.41119942 131.125 1.5625 C132.40632812 1.64628906 133.68765625 1.73007813 135.0078125 1.81640625 C136.48894531 1.90728516 136.48894531 1.90728516 138 2 C138 2.66 138 3.32 138 4 C143.78049511 5.35247024 143.78049511 5.35247024 149.625 6.3671875 C160.23393776 7.87834433 169.41248113 12.41248113 177 20 C177 20.66 177 21.32 177 22 C175.68 22 174.36 22 173 22 C173 21.34 173 20.68 173 20 C172.278125 19.731875 171.55625 19.46375 170.8125 19.1875 C168.01877538 18.00792738 165.59633766 16.5578026 163 15 C161.63875 14.505 161.63875 14.505 160.25 14 C159.5075 13.67 158.765 13.34 158 13 C157.67 12.01 157.34 11.02 157 10 C156.319375 9.90203125 155.63875 9.8040625 154.9375 9.703125 C149.65565525 8.88837235 144.50174152 7.91515706 139.33741188 6.5261631 C121.42935577 1.72464389 103.39140129 1.67556969 84.9609375 1.5859375 C82.49801006 1.56718499 80.03508877 1.5476087 77.57217407 1.5272522 C71.15103819 1.47635577 64.72988158 1.43650514 58.30865479 1.39910889 C51.73176119 1.35879991 45.15495065 1.30783155 38.578125 1.2578125 C25.71880972 1.16155764 12.85944645 1.07663149 0 1 C0 0.67 0 0.34 0 0 Z " fill="#9F184B" transform="translate(21,13)"/>
<path d="M0 0 C7.59 0 15.18 0 23 0 C22.67 0.66 22.34 1.32 22 2 C11.605 2.495 11.605 2.495 1 3 C1 76.26 1 149.52 1 225 C0.67 225 0.34 225 0 225 C0 150.75 0 76.5 0 0 Z " fill="#9D073F" transform="translate(359,123)"/>
<path d="M0 0 C-3.87491765 4.32546534 -8.89639976 5.68069434 -14.57580757 6.26500511 C-17.42837983 6.36683438 -20.26516769 6.37147796 -23.11938477 6.34057617 C-24.19359177 6.34101425 -25.26779877 6.34145233 -26.3745575 6.34190369 C-29.89703046 6.33982696 -33.41901725 6.31654823 -36.94140625 6.29296875 C-39.39476766 6.28736884 -41.84813244 6.28310061 -44.30149841 6.28010559 C-50.73769501 6.26868801 -57.17368636 6.23924723 -63.60980225 6.20599365 C-70.18580347 6.17522624 -76.76183807 6.161586 -83.33789062 6.14648438 C-96.22534764 6.11437472 -109.11266287 6.0637978 -122 6 C-121.67 5.34 -121.34 4.68 -121 4 C-120.4297793 3.99761165 -119.8595586 3.99522329 -119.27205849 3.99276257 C-105.40985555 3.93367693 -91.54782955 3.85797838 -77.68581581 3.76428509 C-70.98229161 3.71928183 -64.27882108 3.67987783 -57.57519531 3.65356445 C-51.11065436 3.62763122 -44.64635147 3.58730013 -38.18195724 3.53681374 C-35.71073737 3.52007727 -33.23947627 3.50860543 -30.76820755 3.50238609 C-27.31738334 3.49281859 -23.86717761 3.46484771 -20.41650391 3.43237305 C-18.87039177 3.43452568 -18.87039177 3.43452568 -17.29304504 3.4367218 C-15.8879644 3.41791458 -15.8879644 3.41791458 -14.45449829 3.39872742 C-13.63778971 3.39411845 -12.82108112 3.38950949 -11.97962379 3.38476086 C-11.32634794 3.25778977 -10.67307209 3.13081869 -10 3 C-9.34 2.01 -8.68 1.02 -8 0 C-4.6993784 -1.01557588 -3.32787119 -1.1092904 0 0 Z " fill="#FAC5DE" transform="translate(142,343)"/>
<path d="M0 0 C0.75410156 0.00322266 1.50820313 0.00644531 2.28515625 0.00976562 C3.06246094 0.01814453 3.83976562 0.02652344 4.640625 0.03515625 C5.43339844 0.03966797 6.22617187 0.04417969 7.04296875 0.04882812 C8.99222008 0.0605706 10.94143238 0.07850479 12.890625 0.09765625 C12.890625 0.42765625 12.890625 0.75765625 12.890625 1.09765625 C10.250625 1.09765625 7.610625 1.09765625 4.890625 1.09765625 C4.890625 1.75765625 4.890625 2.41765625 4.890625 3.09765625 C-0.389375 3.75765625 -5.669375 4.41765625 -11.109375 5.09765625 C-11.109375 5.75765625 -11.109375 6.41765625 -11.109375 7.09765625 C-11.7384375 7.195625 -12.3675 7.29359375 -13.015625 7.39453125 C-18.13895739 8.28957125 -22.46389845 9.46080148 -27.02734375 11.9609375 C-30.24339458 13.71679265 -33.5879048 15.2101285 -36.91015625 16.75390625 C-39.3468951 18.24278399 -40.48708017 19.77942045 -42.109375 22.09765625 C-42.851875 22.53078125 -43.594375 22.96390625 -44.359375 23.41015625 C-46.98080967 25.01876389 -48.39902702 26.46019985 -50.421875 28.72265625 C-53.04767967 31.46991884 -54.75305779 32.58606481 -58.546875 33.03515625 C-60.3103125 33.06609375 -60.3103125 33.06609375 -62.109375 33.09765625 C-58.81244917 25.56418073 -51.81073182 21.68661373 -44.63671875 18.359375 C-41.23316603 16.6602289 -38.20551905 14.54286638 -35.1171875 12.33203125 C-33.09381663 11.08809118 -31.43001406 10.53472728 -29.109375 10.09765625 C-29.109375 9.43765625 -29.109375 8.77765625 -29.109375 8.09765625 C-25.69353428 6.94935045 -22.27656358 5.80444417 -18.859375 4.66015625 C-17.89128906 4.33466797 -16.92320312 4.00917969 -15.92578125 3.67382812 C-14.99121094 3.36123047 -14.05664062 3.04863281 -13.09375 2.7265625 C-12.23491211 2.4385376 -11.37607422 2.1505127 -10.49121094 1.85375977 C-6.89054327 0.71074339 -3.78930635 -0.02870687 0 0 Z " fill="#9E305A" transform="translate(306.109375,11.90234375)"/>
<path d="M0 0 C3.76891499 0.0104342 7.53783727 0.01483956 11.3067627 0.01983643 C18.63425576 0.03039758 25.96171403 0.04734592 33.28918457 0.06866455 C33.28918457 1.05866455 33.28918457 2.04866455 33.28918457 3.06866455 C3.91918457 3.06866455 -25.45081543 3.06866455 -55.71081543 3.06866455 C-55.38081543 2.40866455 -55.05081543 1.74866455 -54.71081543 1.06866455 C-36.46743544 0.03934847 -18.26409632 -0.0561241 0 0 Z " fill="#FEE2F4" transform="translate(239.7108154296875,231.93133544921875)"/>
<path d="M0 0 C18.48 0 36.96 0 56 0 C56 0.33 56 0.66 56 1 C79.1 1.33 102.2 1.66 126 2 C126 2.33 126 2.66 126 3 C83.76 3 41.52 3 -2 3 C-1.34 2.67 -0.68 2.34 0 2 C0 1.34 0 0.68 0 0 Z " fill="#E6BED3" transform="translate(309,9)"/>
<path d="M0 0 C28.71 0 57.42 0 87 0 C87 1.98 87 3.96 87 6 C86.34 6.66 85.68 7.32 85 8 C85 6.35 85 4.7 85 3 C57.61 3 30.22 3 2 3 C1.24884679 6.00461285 0.83472225 8.305555 0.68359375 11.328125 C0.64169922 12.12734375 0.59980469 12.9265625 0.55664062 13.75 C0.51732422 14.575 0.47800781 15.4 0.4375 16.25 C0.39431641 17.09046875 0.35113281 17.9309375 0.30664062 18.796875 C0.20091457 20.86440671 0.09998705 22.93218281 0 25 C-0.99 25 -1.98 25 -3 25 C-2.505 23.515 -2.505 23.515 -2 22 C-1.86564019 20.55528578 -1.77644741 19.10605093 -1.71875 17.65625 C-1.68136719 16.82222656 -1.64398438 15.98820313 -1.60546875 15.12890625 C-1.55326172 13.82759766 -1.55326172 13.82759766 -1.5 12.5 C-1.43103914 10.78108674 -1.35828021 9.06232055 -1.28125 7.34375 C-1.25095703 6.58255859 -1.22066406 5.82136719 -1.18945312 5.03710938 C-1 3 -1 3 0 0 Z " fill="#990B42" transform="translate(184,237)"/>
<path d="M0 0 C2.41023689 2.41023689 3.08912251 4.51150046 4.3125 7.6875 C6.36774598 12.77088945 8.71374537 16.64793306 12 21 C12.28875 21.825 12.5775 22.65 12.875 23.5 C14.36628126 26.81395836 16.58621824 28.81123279 19.203125 31.29296875 C20.72063487 32.73460313 22.15280549 34.26527432 23.5625 35.8125 C26.30810823 38.27650739 28.49981096 38.9573905 32 40 C33.35622245 40.96873032 34.69417053 41.96434215 36 43 C39.47517129 44.15839043 42.6727002 44.22801218 46.29296875 44.31640625 C47.35201164 44.3475779 47.35201164 44.3475779 48.43244934 44.37937927 C50.68403551 44.44467491 52.93573662 44.50366647 55.1875 44.5625 C56.7155066 44.60570425 58.24350164 44.64931916 59.77148438 44.69335938 C63.51420562 44.80033574 67.2570423 44.90165922 71 45 C71 45.33 71 45.66 71 46 C66.28608601 46.074557 61.57252071 46.12879273 56.8581543 46.16479492 C55.25685644 46.17981466 53.65559925 46.20023663 52.05444336 46.22631836 C49.74322429 46.26300438 47.43255244 46.27979435 45.12109375 46.29296875 C44.41351425 46.30845261 43.70593475 46.32393646 42.97691345 46.33988953 C33.07181441 46.3431893 21.99462865 40.15327554 14.9375 33.375 C11.95914707 29.72411576 10.22378174 26.83918151 9 22.25 C8.505 20.64125 8.505 20.64125 8 19 C7.01 18.67 6.02 18.34 5 18 C1.9508081 14.22816725 -0.73393651 9.92217448 -1 5 C-0.5625 2.1875 -0.5625 2.1875 0 0 Z " fill="#912851" transform="translate(281,303)"/>
<path d="M0 0 C9.09317389 7.47384155 9.09317389 7.47384155 10.875 12.4375 C12.30711575 15.69954144 14.40129721 17.60645795 17 20 C17.99 18.02 18.98 16.04 20 14 C20.66 14 21.32 14 22 14 C22.10699219 13.42507812 22.21398437 12.85015625 22.32421875 12.2578125 C23.09715922 9.67538711 24.19707632 8.02617179 25.8125 5.875 C26.31394531 5.19179688 26.81539062 4.50859375 27.33203125 3.8046875 C29.09519552 1.89700157 30.6226901 1.00042976 33 0 C32.55515378 4.89330845 31.52500836 6.68862851 28 10 C26.74563813 12.63222962 26.74563813 12.63222962 26 15 C24.68 15 23.36 15 22 15 C22 16.98 22 18.96 22 21 C21.01 21 20.02 21 19 21 C19 21.66 19 22.32 19 23 C16 25 16 25 13 25 C12.75765625 24.37351562 12.5153125 23.74703125 12.265625 23.1015625 C11.93046875 22.28429687 11.5953125 21.46703125 11.25 20.625 C10.92515625 19.81289062 10.6003125 19.00078125 10.265625 18.1640625 C8.77301157 15.6118778 7.59107889 15.26457038 5 14 C4.0234375 12.16015625 4.0234375 12.16015625 3.375 10.0625 C2.4736572 7.22592117 1.70170876 5.55256314 0 3 C0 2.01 0 1.02 0 0 Z " fill="#9A194A" transform="translate(211,45)"/>
<path d="M0 0 C0.66 0.33 1.32 0.66 2 1 C-0.05842596 9.38712689 -2.20408748 16.32183625 -9 22 C-10.33236645 22.66859693 -11.66553768 23.33559609 -13 24 C-13.33 24.66 -13.66 25.32 -14 26 C-14.99 26.33 -15.98 26.66 -17 27 C-18.03789581 28.64333504 -19.03567924 30.31243867 -20 32 C-23.30628887 35.91180108 -27.08577982 36.36472934 -32 37 C-35.67448077 37.14660091 -39.32525553 37.12363626 -43 37 C-39.9535416 35.38380376 -36.88852115 34.23112341 -33.625 33.125 C-29.19564288 31.54814886 -25.78656705 29.74526111 -22 27 C-21.01 26.67 -20.02 26.34 -19 26 C-18.34 25.01 -17.68 24.02 -17 23 C-16.22914063 22.58363281 -15.45828125 22.16726563 -14.6640625 21.73828125 C-11.22829763 19.49646986 -9.46074201 16.62178211 -7.375 13.1875 C-6.80265625 12.28161133 -6.80265625 12.28161133 -6.21875 11.35742188 C-3.91795337 7.67218038 -1.88460498 3.91925813 0 0 Z " fill="#972652" transform="translate(169,313)"/>
<path d="M0 0 C0.495 0.99 0.495 0.99 1 2 C-7.31739924 2.79643944 -15.36881166 3.03852327 -23.70703125 2.59765625 C-35.51753257 2.07134964 -47.31633002 1.82590003 -59.13671875 1.68359375 C-60.01154026 1.67289478 -60.88636177 1.66219582 -61.78769302 1.65117264 C-67.17138926 1.58615254 -72.55513244 1.52619429 -77.93890381 1.46777344 C-82.58625179 1.41658687 -87.2335526 1.36142004 -91.88085938 1.30664062 C-100.92053219 1.20064722 -109.9602468 1.09888355 -119 1 C-119 0.67 -119 0.34 -119 0 C-104.37031538 -0.15408582 -89.74057991 -0.30211347 -75.11076164 -0.4429636 C-68.31762377 -0.50850593 -61.52451621 -0.57601756 -54.73144531 -0.64819336 C-48.17628333 -0.71783584 -41.62108081 -0.78195312 -35.06583023 -0.84269524 C-32.56437473 -0.86677841 -30.06293637 -0.8927158 -27.56151962 -0.92053413 C-24.05910674 -0.95916846 -20.556691 -0.99122132 -17.05419922 -1.02172852 C-16.01913742 -1.03467453 -14.98407562 -1.04762054 -13.91764832 -1.06095886 C-4.30303465 -1.13153095 -4.30303465 -1.13153095 0 0 Z " fill="#E5BDD0" transform="translate(138,429)"/>
<path d="M0 0 C0 0.99 0 1.98 0 3 C-23.76 3 -47.52 3 -72 3 C-71.67 2.34 -71.34 1.68 -71 1 C-70.20264435 0.98969254 -69.4052887 0.97938507 -68.58377075 0.96876526 C-61.0790848 0.87089432 -53.57448326 0.76839487 -46.06993294 0.66066074 C-42.21152754 0.60543434 -38.35311456 0.55201481 -34.49462891 0.50268555 C-30.77281878 0.45503779 -27.05110191 0.40269486 -23.32940292 0.34705925 C-21.90762522 0.32663755 -20.48582194 0.30792415 -19.06399918 0.29092598 C-17.07662369 0.26687819 -15.08933095 0.23626002 -13.10205078 0.20532227 C-11.96953888 0.18977798 -10.83702698 0.1742337 -9.67019653 0.15821838 C-1.400812 -0.33177126 -1.400812 -0.33177126 0 0 Z " fill="#FEE0F3" transform="translate(436,8)"/>
<path d="M0 0 C11.84951366 -0.41070201 23.65630372 -0.6269783 34 6 C34.886875 6.433125 35.77375 6.86625 36.6875 7.3125 C39.70732656 9.51615722 40.03967138 11.45417125 41 15 C41.66 15.99 42.32 16.98 43 18 C42.505 19.485 42.505 19.485 42 21 C36.23779193 16.49044586 36.23779193 16.49044586 35 13.9375 C32.09527757 8.30960028 24.21643319 6.18334675 18.6796875 4.10546875 C12.54521039 2.26252074 6.36904405 1.5902157 0 1 C0 0.67 0 0.34 0 0 Z " fill="#98214E" transform="translate(119,91)"/>
<path d="M0 0 C0 0.66 0 1.32 0 2 C-0.68964844 2.36351562 -1.37929688 2.72703125 -2.08984375 3.1015625 C-7.61050223 6.0550012 -12.90512028 9.15297386 -18.0703125 12.69140625 C-19.59405034 13.72471025 -21.16498442 14.68839989 -22.75 15.625 C-25.35236604 17.2153348 -27.65378735 19.05599523 -30 21 C-30.33 20.01 -30.66 19.02 -31 18 C-27.86167533 13.24189485 -24.9871682 11.36371955 -19.8671875 9.07421875 C-16.83428433 7.32934768 -15.67818298 5.02072936 -14 2 C-12.45616882 0.45616882 -10.82521363 0.65791892 -8.6875 0.4375 C-7.51767578 0.31181641 -7.51767578 0.31181641 -6.32421875 0.18359375 C-4.22180671 0.01752087 -2.10896103 0 0 0 Z " fill="#F6CAE2" transform="translate(277,20)"/>
<path d="M0 0 C2.56483235 3.24748569 3.67835774 5.76066306 4.625 9.8125 C4.86476562 10.80894531 5.10453125 11.80539063 5.3515625 12.83203125 C6.60044404 18.9334947 7.11763954 24.70673185 7.0625 30.9375 C7.05798828 31.62134766 7.05347656 32.30519531 7.04882812 33.00976562 C7.0371956 34.67321604 7.01926694 36.3366205 7 38 C5.5393715 35.35261084 5 34.10551666 5 31 C4.34 31 3.68 31 3 31 C2.8046875 28.98177083 2.609375 26.96354167 2.4140625 24.9453125 C2.13625251 22.77331755 2.13625251 22.77331755 0 21 C-0.22705078 18.84521484 -0.22705078 18.84521484 -0.1953125 16.2109375 C-0.18886719 15.26992187 -0.18242187 14.32890625 -0.17578125 13.359375 C-0.15902344 12.37453125 -0.14226562 11.3896875 -0.125 10.375 C-0.11597656 9.38242188 -0.10695312 8.38984375 -0.09765625 7.3671875 C-0.07404116 4.91121866 -0.04110799 2.45572832 0 0 Z " fill="#F3C8DD" transform="translate(174,143)"/>
<path d="M0 0 C0.99 0 1.98 0 3 0 C1.67139378 10.4608651 -5.20538927 20.14780593 -12 28 C-12.99 28.33 -13.98 28.66 -15 29 C-15 27.35 -15 25.7 -15 24 C-14.01 24 -13.02 24 -12 24 C-11.9175 22.9275 -11.835 21.855 -11.75 20.75 C-10.94429847 16.72149234 -10.21808534 15.43794344 -7 13 C-6.34 13 -5.68 13 -5 13 C-4.34 9.37 -3.68 5.74 -3 2 C-2.01 2 -1.02 2 0 2 C0 1.34 0 0.68 0 0 Z " fill="#F8DFEF" transform="translate(168,307)"/>
<path d="M0 0 C3 1 3 1 5 4 C5 5.32 5 6.64 5 8 C5.99 8.33 6.98 8.66 8 9 C8 10.65 8 12.3 8 14 C8.99 14.33 9.98 14.66 11 15 C16.35489408 23.68201576 18.31123085 36.97836654 18 47 C16.48992623 44.17345166 15.47916137 41.46002988 14.625 38.375 C13.5990847 34.83611035 12.42042603 31.46176382 11 28.0625 C9.51761433 24.49691325 8.43284921 20.99660635 7.5 17.25 C6.3587833 12.8160925 4.69354994 9.73621443 2 6 C0.75 2.625 0.75 2.625 0 0 Z " fill="#94214E" transform="translate(162,112)"/>
<path d="M0 0 C2.0625 0.4375 2.0625 0.4375 4 1 C1.6661567 3.46720577 -0.42301094 5.6659537 -3.375 7.375 C-5.92007411 8.95052207 -7.33565761 10.41954318 -9.3125 12.625 C-11.93830467 15.37226259 -13.64368279 16.48840856 -17.4375 16.9375 C-19.2009375 16.9684375 -19.2009375 16.9684375 -21 17 C-17.63601544 9.31329527 -10.3314458 5.32381165 -3.00390625 1.9453125 C-1.04794733 1.16055947 -1.04794733 1.16055947 0 0 Z " fill="#A10B43" transform="translate(265,28)"/>
<path d="M0 0 C0.33 0 0.66 0 1 0 C1.02688151 1.64574566 1.04634123 3.29161413 1.0625 4.9375 C1.07410156 5.85402344 1.08570313 6.77054687 1.09765625 7.71484375 C1 10 1 10 0 11 C-0.21083753 13.67060873 -0.37591197 16.3252135 -0.5 19 C-0.86486486 26.86486486 -0.86486486 26.86486486 -2 28 C-2.36760731 30.32817964 -2.70241581 32.6618385 -3 35 C-3.66 35 -4.32 35 -5 35 C-4.79375 35.556875 -4.5875 36.11375 -4.375 36.6875 C-3.87657152 39.7611423 -4.50454858 41.29394506 -6 44 C-8.08203125 45.1484375 -8.08203125 45.1484375 -10 46 C-9.73988711 44.62293175 -9.46626234 43.24841445 -9.1875 41.875 C-9.03667969 41.10929687 -8.88585937 40.34359375 -8.73046875 39.5546875 C-8 37 -8 37 -6.5234375 34.37109375 C-4.42887122 29.73619451 -4.00827993 25.20968794 -3.4375 20.1875 C-2.62211526 13.34292754 -1.60626714 6.70771642 0 0 Z " fill="#952D55" transform="translate(180,265)"/>
<path d="M0 0 C-3.47820633 2.31880422 -6.1583019 2.81807149 -10.25 3.625 C-12.17585938 4.01558594 -12.17585938 4.01558594 -14.140625 4.4140625 C-23.70156636 5.86562242 -23.70156636 5.86562242 -28 3 C-22.15802416 -2.84197584 -7.55217191 -1.1618726 0 0 Z " fill="#EAAECA" transform="translate(163,425)"/>
<path d="M0 0 C0.33 0 0.66 0 1 0 C1.09796875 0.8971875 1.1959375 1.794375 1.296875 2.71875 C2.22314608 10.44832248 3.59905035 17.80992931 5.59960938 25.33203125 C6.9594939 30.54406017 7.74160383 35.62535957 8 41 C7.01 41 6.02 41 5 41 C2.95507425 33.74630111 1.62130954 26.83403937 1.2109375 19.30078125 C1.25076772 17.03756896 1.25076772 17.03756896 0 16 C-0.07319621 13.30345146 -0.09242537 10.63308542 -0.0625 7.9375 C-0.05798828 7.17888672 -0.05347656 6.42027344 -0.04882812 5.63867188 C-0.0370068 3.75908129 -0.01907078 1.87953101 0 0 Z " fill="#992F58" transform="translate(273,260)"/>
<path d="M0 0 C0 3 0 3 -1.25 4.296875 C-2.11625 5.01617187 -2.11625 5.01617187 -3 5.75 C-8.61153521 11.08835703 -11.6040116 18.15030101 -15 25 C-15.46019531 25.9075 -15.92039062 26.815 -16.39453125 27.75 C-17.27569785 29.49365122 -18.14065005 31.24549385 -19 33 C-19.33 33 -19.66 33 -20 33 C-20.25 29.75 -20.25 29.75 -20 26 C-18.66666667 24.66666667 -17.33333333 23.33333333 -16 22 C-14.76037843 18.72719158 -13.85439704 15.39169734 -13 12 C-12.01 12 -11.02 12 -10 12 C-10 11.01 -10 10.02 -10 9 C-9.34 9 -8.68 9 -8 9 C-8 8.01 -8 7.02 -8 6 C-7.34 5.67 -6.68 5.34 -6 5 C-5.71125 4.34 -5.4225 3.68 -5.125 3 C-4 1 -4 1 -1.875 0.25 C-1.25625 0.1675 -0.6375 0.085 0 0 Z " fill="#961E4C" transform="translate(301,102)"/>
<path d="M0 0 C8.25 0.33 16.5 0.66 25 1 C25 1.66 25 2.32 25 3 C30.61 3 36.22 3 42 3 C42 3.33 42 3.66 42 4 C36.66151328 4.09894543 31.32356131 4.17150414 25.984375 4.21972656 C24.1685252 4.23983061 22.35274005 4.26711835 20.53710938 4.30175781 C17.92561895 4.35033039 15.31498502 4.37298027 12.703125 4.390625 C11.89256653 4.41127014 11.08200806 4.43191528 10.24688721 4.45318604 C7.94238281 4.45410156 7.94238281 4.45410156 4 4 C2.68 2.68 1.36 1.36 0 0 Z " fill="#9C083F" transform="translate(316,348)"/>
<path d="M0 0 C0.99 0.33 1.98 0.66 3 1 C0.45671442 3.54328558 -2.08423481 6.08031692 -4.6875 8.5625 C-7.02209709 10.78639483 -7.02209709 10.78639483 -8.0625 13.125 C-10.08748884 17.17497769 -13.94532512 18.50617241 -18 20 C-18.66 20.33 -19.32 20.66 -20 21 C-19.42002201 17.08514857 -17.65821394 14.8737448 -15 12 C-11.99546234 9.79258458 -9.53641169 8.1788039 -6 7 C-5.319375 6.319375 -4.63875 5.63875 -3.9375 4.9375 C-3.298125 4.298125 -2.65875 3.65875 -2 3 C-1.34 3 -0.68 3 0 3 C0 2.01 0 1.02 0 0 Z " fill="#9D1347" transform="translate(211,390)"/>
<path d="M0 0 C1.27681641 0.05220703 2.55363281 0.10441406 3.86914062 0.15820312 C6.9756133 0.28618515 10.08161667 0.42104647 13.1875 0.5625 C9.5101145 2.92117975 5.94537508 2.85297296 1.71875 2.828125 C1.001427 2.83003845 0.284104 2.8319519 -0.45495605 2.83392334 C-1.9678584 2.83528113 -3.48077255 2.83161309 -4.99365234 2.82324219 C-7.3046291 2.81253646 -9.61482857 2.82315079 -11.92578125 2.8359375 C-13.39843921 2.83461583 -14.87109669 2.83205329 -16.34375 2.828125 C-17.37671204 2.83419769 -17.37671204 2.83419769 -18.43054199 2.84039307 C-22.05853152 2.80506796 -24.724935 2.54286813 -27.8125 0.5625 C-18.4716227 -0.37895048 -9.37175855 -0.42845139 0 0 Z " fill="#9F2E59" transform="translate(336.8125,425.4375)"/>
<path d="M0 0 C2.31 0.33 4.62 0.66 7 1 C7 1.99 7 2.98 7 4 C8.9944352 8.19881095 11.03612031 9.73492589 15 12 C17.8125 14.5625 17.8125 14.5625 20 17 C20 17.66 20 18.32 20 19 C12.45888789 16.8955036 8.48733677 12.60596118 3.55078125 6.8046875 C1.97318991 4.92288746 1.97318991 4.92288746 0 3 C0 2.01 0 1.02 0 0 Z " fill="#F8DAEA" transform="translate(293,325)"/>
<path d="M0 0 C2.97 0.495 2.97 0.495 6 1 C6.66 3.97 7.32 6.94 8 10 C9.32 10.33 10.64 10.66 12 11 C14.62334906 14.37287736 15.36372697 16.75651873 15 21 C8.54900036 14.93997004 3.03411094 8.38842437 0 0 Z " fill="#A10E46" transform="translate(228,373)"/>
<path d="M0 0 C0.33 0 0.66 0 1 0 C1.57970279 20.42337529 1.57970279 20.42337529 -1.20703125 27.75 C-2.47577418 31.34997995 -2.9180678 35.08173656 -3.47265625 38.84765625 C-3.64667969 39.55792969 -3.82070312 40.26820313 -4 41 C-4.99 41.495 -4.99 41.495 -6 42 C-6 39.36 -6 36.72 -6 34 C-5.34 34 -4.68 34 -4 34 C-4.020625 32.865625 -4.04125 31.73125 -4.0625 30.5625 C-4 27 -4 27 -3 26 C-2.78916247 23.32939127 -2.62408803 20.6747865 -2.5 18 C-2.13513514 10.13513514 -2.13513514 10.13513514 -1 9 C-0.76807135 7.48530552 -0.58784762 5.96245438 -0.4375 4.4375 C-0.35371094 3.61121094 -0.26992187 2.78492188 -0.18359375 1.93359375 C-0.12300781 1.29550781 -0.06242188 0.65742188 0 0 Z " fill="#9E1247" transform="translate(181,266)"/>
<path d="M0 0 C7.64637028 -0.73522791 13.14683514 1.78470818 20 5 C21.22589844 5.55300781 21.22589844 5.55300781 22.4765625 6.1171875 C25.96690046 7.75447331 27.82218539 8.73327808 30 12 C26.32129085 12 24.41905895 10.87689464 21.125 9.25 C15.35763709 6.50240239 9.64077587 4.53839342 3.484375 2.859375 C1 2 1 2 0 0 Z " fill="#F4C7DE" transform="translate(162,15)"/>
<path d="M0 0 C-2.7123906 2.7123906 -5.31549636 3.0174657 -9 4 C-14.2611074 5.42488325 -17.70591509 7.73649547 -22 11 C-22.33 9.68 -22.66 8.36 -23 7 C-21.68 7 -20.36 7 -19 7 C-19 5.68 -19 4.36 -19 3 C-13.48034107 -0.67977262 -6.47704725 -0.13780952 0 0 Z " fill="#982552" transform="translate(325,91)"/>
<path d="M0 0 C2.58789062 1.5625 2.58789062 1.5625 5.17578125 3.125 C7.11361926 4.21623999 7.11361926 4.21623999 10 4 C11.02104551 4.97850195 12.0206121 5.97980427 13 7 C16.47517129 8.15839043 19.6727002 8.22801218 23.29296875 8.31640625 C24.35201164 8.3475779 24.35201164 8.3475779 25.43244934 8.37937927 C27.68403551 8.44467491 29.93573662 8.50366647 32.1875 8.5625 C33.7155066 8.60570425 35.24350164 8.64931916 36.77148438 8.69335938 C40.51420562 8.80033574 44.2570423 8.90165922 48 9 C48 9.33 48 9.66 48 10 C43.28608601 10.074557 38.57252071 10.12879273 33.8581543 10.16479492 C32.25685644 10.17981466 30.65559925 10.20023663 29.05444336 10.22631836 C26.74322429 10.26300438 24.43255244 10.27979435 22.12109375 10.29296875 C21.41351425 10.30845261 20.70593475 10.32393646 19.97691345 10.33988953 C12.1864377 10.34248483 6.53229242 6.86605061 0 3 C0 2.01 0 1.02 0 0 Z " fill="#972E57" transform="translate(304,339)"/>
<path d="M0 0 C0.33 0 0.66 0 1 0 C1.0501123 0.66008057 1.10022461 1.32016113 1.15185547 2.00024414 C1.38547136 5.02162339 1.63014493 8.04201165 1.875 11.0625 C1.95363281 12.10083984 2.03226563 13.13917969 2.11328125 14.20898438 C2.63890476 20.70229224 2.63890476 20.70229224 4.09375 27.03125 C5.13066569 30.42804277 4.83292466 32.58500888 4 36 C3.01 36 2.02 36 1 36 C-0.19388403 11.22373113 -0.19388403 11.22373113 0 0 Z " fill="#9A0F43" transform="translate(182,167)"/>
<path d="M0 0 C0.33 0 0.66 0 1 0 C1.06058594 1.04800781 1.12117188 2.09601563 1.18359375 3.17578125 C1.26801738 4.55470048 1.35266447 5.93360605 1.4375 7.3125 C1.47681641 8.00279297 1.51613281 8.69308594 1.55664062 9.40429688 C1.74927415 12.47161535 2.02322717 15.06968152 3 18 C3.08178114 19.70016844 3.10749501 21.40336297 3.09765625 23.10546875 C3.09282227 24.57983398 3.09282227 24.57983398 3.08789062 26.08398438 C3.07951172 27.10814453 3.07113281 28.13230469 3.0625 29.1875 C3.05798828 30.22326172 3.05347656 31.25902344 3.04882812 32.32617188 C3.0370401 34.88417266 3.02058515 37.44205733 3 40 C2.67 40 2.34 40 2 40 C-0.42291291 26.69561212 -0.20801332 13.48086352 0 0 Z " fill="#FACCE2" transform="translate(273,235)"/>
<path d="M0 0 C6.95500296 2.84237011 12.6547846 5.6547846 18 11 C18 11.66 18 12.32 18 13 C16.68 13 15.36 13 14 13 C14 12.34 14 11.68 14 11 C13.278125 10.731875 12.55625 10.46375 11.8125 10.1875 C9.01877538 9.00792738 6.59633766 7.5578026 4 6 C2.34630643 5.30177383 0.68272986 4.62501395 -1 4 C-0.67 2.68 -0.34 1.36 0 0 Z " fill="#9B2D58" transform="translate(180,22)"/>
<path d="M0 0 C0.33 0 0.66 0 1 0 C1.73226358 7.61554118 -0.80835533 13.16076141 -4 20 C-4.66 20 -5.32 20 -6 20 C-6.33 20.66 -6.66 21.32 -7 22 C-6.60293233 15.24984963 -4.926154 4.926154 0 0 Z " fill="#F3C6DC" transform="translate(285,127)"/>
<path d="M0 0 C0.90901939 3.04842865 1.06173367 5.59661636 0.87890625 8.765625 C0.83056641 9.65507812 0.78222656 10.54453125 0.73242188 11.4609375 C0.64831055 12.84152344 0.64831055 12.84152344 0.5625 14.25 C0.51029297 15.18585938 0.45808594 16.12171875 0.40429688 17.0859375 C0.27493175 19.39098887 0.13997966 21.69557289 0 24 C-0.66 24 -1.32 24 -2 24 C-2.33 26.64 -2.66 29.28 -3 32 C-3.33 32 -3.66 32 -4 32 C-3.63798315 20.98969453 -2.73861328 10.71331736 0 0 Z " fill="#EBB1CB" transform="translate(277,152)"/>
<path d="M0 0 C2.0625 0.4375 2.0625 0.4375 4 1 C1.5 2.5 1.5 2.5 -1 4 C-1.78375 4.495 -2.5675 4.99 -3.375 5.5 C-11.6875 10.25 -11.6875 10.25 -15.21484375 9.578125 C-15.80394531 9.38734375 -16.39304687 9.1965625 -17 9 C-11.75931597 4.44856693 -8.0498552 1.29374397 -1 1 C-0.67 0.67 -0.34 0.34 0 0 Z " fill="#F5D1E3" transform="translate(319,93)"/>
<path d="M0 0 C23.49855467 1.60891005 23.49855467 1.60891005 31 6 C32.98867713 6.69971973 34.98608051 7.37664397 37 8 C33.57056481 9.18771723 31.62215325 8.80226223 28.25 7.5625 C27.45078125 7.27503906 26.6515625 6.98757812 25.828125 6.69140625 C25.22484375 6.46324219 24.6215625 6.23507813 24 6 C24 5.34 24 4.68 24 4 C22.64068359 4.03480469 22.64068359 4.03480469 21.25390625 4.0703125 C14.16989543 4.17526081 7.80092365 4.07485806 1 2 C0.67 1.34 0.34 0.68 0 0 Z " fill="#97355C" transform="translate(135,11)"/>
<path d="M0 0 C0 0.99 0 1.98 0 3 C-2.6977192 4.23421873 -5.39737955 5.46358319 -8.1015625 6.68359375 C-9.7913867 7.45107455 -11.47644788 8.22956125 -13.1484375 9.03515625 C-16.60809416 10.65923088 -18.37431361 11.14330499 -22 10 C-20.54462432 9.16151196 -19.08559627 8.32936066 -17.625 7.5 C-16.40683594 6.80390625 -16.40683594 6.80390625 -15.1640625 6.09375 C-13 5 -13 5 -11 5 C-11 4.34 -11 3.68 -11 3 C-9.54293274 2.49632243 -8.08429904 1.99717444 -6.625 1.5 C-5.81289063 1.2215625 -5.00078125 0.943125 -4.1640625 0.65625 C-2 0 -2 0 0 0 Z " fill="#A13A63" transform="translate(288,17)"/>
<path d="M0 0 C2.9954604 1.4977302 3.52151943 4.04303887 5 7 C6.32381517 8.67423683 7.65576661 10.34211215 9 12 C9.33 12.99 9.66 13.98 10 15 C8.125 14.6875 8.125 14.6875 6 14 C4 11 4 11 4 8 C0.95613276 7.91773332 -1.07175348 8.02391783 -4 9 C-2.80100302 5.9168649 -1.52299523 2.93720508 0 0 Z " fill="#F8D1E5" transform="translate(227,373)"/>
<path d="M0 0 C1.81273037 5.96003772 0.86771668 11.98689729 -1.5625 17.625 C-2.036875 18.40875 -2.51125 19.1925 -3 20 C-3.33 20 -3.66 20 -4 20 C-3.91283383 17.41507211 -3.80594881 14.83352498 -3.6875 12.25 C-3.66494141 11.52039063 -3.64238281 10.79078125 -3.61914062 10.0390625 C-3.40690219 5.79429381 -3.02929201 3.086142 0 0 Z " fill="#F8DAEB" transform="translate(176,282)"/>
<path d="M0 0 C-0.49371094 0.33773438 -0.98742187 0.67546875 -1.49609375 1.0234375 C-2.13675781 1.46945312 -2.77742187 1.91546875 -3.4375 2.375 C-4.07558594 2.81585938 -4.71367187 3.25671875 -5.37109375 3.7109375 C-7.13740928 4.92160853 -7.13740928 4.92160853 -8 7 C-10.64 6.67 -13.28 6.34 -16 6 C-15 3 -15 3 -12.63671875 1.796875 C-11.66347656 1.45140625 -10.69023437 1.1059375 -9.6875 0.75 C-8.23923828 0.21632813 -8.23923828 0.21632813 -6.76171875 -0.328125 C-3.97753166 -1.00546613 -2.64521065 -0.98017307 0 0 Z " fill="#F4D1E4" transform="translate(181,419)"/>
<path d="M0 0 C0 3 0 3 -1.4375 5.0625 C-7.86813453 9.92468709 -16.28880587 9.25944205 -24 9 C-21.07341427 7.38533201 -18.47256911 6.57941376 -15.1875 6 C-6.67776558 4.80519738 -6.67776558 4.80519738 0 0 Z " fill="#9C1649" transform="translate(150,341)"/>
<path d="M0 0 C1.33332095 2.6666419 0.67102033 4.16680303 0 7 C-0.66 7 -1.32 7 -2 7 C-2.33 7.99 -2.66 8.98 -3 10 C-3.99 10.495 -3.99 10.495 -5 11 C-5.103125 11.969375 -5.20625 12.93875 -5.3125 13.9375 C-5.539375 14.948125 -5.76625 15.95875 -6 17 C-8.5625 18.375 -8.5625 18.375 -11 19 C-9.59510534 15.3029088 -7.94496078 11.85252297 -6.0625 8.375 C-5.55847656 7.43398437 -5.05445313 6.49296875 -4.53515625 5.5234375 C-3.18537583 3.30471447 -1.92713342 1.71428585 0 0 Z " fill="#F5CDE1" transform="translate(297,108)"/>
<path d="M0 0 C0 0.66 0 1.32 0 2 C-4.32179888 4.46959936 -7.07883897 5.10470555 -12 5 C-14.78566059 5.91257306 -14.78566059 5.91257306 -17 7 C-14.125 2.125 -14.125 2.125 -13 1 C-11.56950256 0.76496898 -10.1295314 0.58618736 -8.6875 0.4375 C-7.51767578 0.31181641 -7.51767578 0.31181641 -6.32421875 0.18359375 C-4.22180671 0.01752087 -2.10896103 0 0 0 Z " fill="#F8E3F0" transform="translate(277,20)"/>
<path d="M0 0 C0.99 0 1.98 0 3 0 C2.52412884 6.02770138 -0.19722957 10.76678289 -3 16 C-4.10370043 12.6888987 -3.92673641 10.75251051 -3.5625 7.3125 C-3.46066406 6.31863281 -3.35882813 5.32476562 -3.25390625 4.30078125 C-3.17011719 3.54152344 -3.08632812 2.78226562 -3 2 C-2.01 2 -1.02 2 0 2 C0 1.34 0 0.68 0 0 Z " fill="#F7D1E5" transform="translate(168,307)"/>
<path d="M0 0 C2.0625 0.4375 2.0625 0.4375 4 1 C-0.11118919 4.52387645 -3.46508112 7 -9 7 C-9 7.66 -9 8.32 -9 9 C-9.99 9 -10.98 9 -12 9 C-12 9.66 -12 10.32 -12 11 C-16.47058824 15 -16.47058824 15 -19 15 C-19 13 -19 13 -17.6015625 11.44921875 C-13.042445 7.3856575 -8.55169829 4.50322578 -3.00390625 1.9453125 C-1.04794733 1.16055947 -1.04794733 1.16055947 0 0 Z " fill="#992854" transform="translate(265,28)"/>
<path d="M0 0 C2 1 2 1 3.0234375 3.5625 C4.09793937 7.34474657 4.91339724 11.13701357 5.625 15 C5.7590625 15.68578125 5.893125 16.3715625 6.03125 17.078125 C6.7844591 21.10548793 7.14074114 24.90571228 7 29 C4.97469721 25.47773428 4.20547112 21.95941784 3.375 18 C2.98441406 16.1746875 2.98441406 16.1746875 2.5859375 14.3125 C2 11 2 11 2 7 C1.34 7 0.68 7 0 7 C0 4.69 0 2.38 0 0 Z " fill="#941747" transform="translate(173,130)"/>
<path d="M0 0 C2.71508092 0.67877023 4.52133327 1.31201799 6.15234375 3.65625 C7.11553823 5.42998172 8.05860792 7.21460123 9 9 C9.66 9.33 10.32 9.66 11 10 C11.33 9.34 11.66 8.68 12 8 C11.67 9.65 11.34 11.3 11 13 C10.01 13 9.02 13 8 13 C4.67885735 9.51685039 2.53479945 6.60439836 1 2 C0.67 1.34 0.34 0.68 0 0 Z " fill="#F5C3DB" transform="translate(218,52)"/>
<path d="M0 0 C3.12874789 3.12874789 4.04591538 5.7208137 4.5 10.0625 C4.70875489 14.0457203 4.70875489 14.0457203 7 17 C2.79624622 15.25654843 1.56748631 13.18546697 -0.31640625 9.17578125 C-1.38307158 5.78073787 -0.85444647 3.4177859 0 0 Z " fill="#9D1E4E" transform="translate(281,303)"/>
<path d="M0 0 C0.66 0 1.32 0 2 0 C-1.37471783 9.08577878 -1.37471783 9.08577878 -5 11.125 C-5.66 11.41375 -6.32 11.7025 -7 12 C-8.70921589 13.5412312 -8.70921589 13.5412312 -10 15 C-10 13.68 -10 12.36 -10 11 C-9.34 11 -8.68 11 -8 11 C-8 10.01 -8 9.02 -8 8 C-6.68 8 -5.36 8 -4 8 C-3.67 6.02 -3.34 4.04 -3 2 C-2.01 2 -1.02 2 0 2 C0 1.34 0 0.68 0 0 Z " fill="#992451" transform="translate(224,375)"/>
<path d="M0 0 C4.56454251 0.54339792 7.9728176 1.79463821 12 4 C9 6 9 6 5.5 5.75 C2 5 2 5 -1 3 C-0.67 2.01 -0.34 1.02 0 0 Z " fill="#F0C1D9" transform="translate(315,342)"/>
<path d="M0 0 C4.70251561 2.12732849 8.20440801 4.56589296 12 8 C12 8.33 12 8.66 12 9 C4 8.23076923 4 8.23076923 1 5 C0.25 2.3125 0.25 2.3125 0 0 Z " fill="#982451" transform="translate(199,35)"/>
<path d="M0 0 C3.89569135 -0.08732726 7.79112982 -0.14050185 11.6875 -0.1875 C12.79029297 -0.21263672 13.89308594 -0.23777344 15.02929688 -0.26367188 C16.09599609 -0.27333984 17.16269531 -0.28300781 18.26171875 -0.29296875 C19.24100342 -0.3086792 20.22028809 -0.32438965 21.22924805 -0.34057617 C24.45781652 0.05627404 26.34779173 1.16483275 29 3 C25.7169902 4.6415049 22.57454967 3.51888624 19 3 C19 2.67 19 2.34 19 2 C12.73 1.67 6.46 1.34 0 1 C0 0.67 0 0.34 0 0 Z " fill="#981144" transform="translate(108,88)"/>
<path d="M0 0 C0 3 0 3 -1.75 5.04296875 C-2.4925 5.75066406 -3.235 6.45835938 -4 7.1875 C-4.7425 7.90292969 -5.485 8.61835937 -6.25 9.35546875 C-7.11625 10.16951172 -7.11625 10.16951172 -8 11 C-8.66 10.01 -9.32 9.02 -10 8 C-5 1.42857143 -5 1.42857143 0 0 Z " fill="#F3C9DD" transform="translate(256,30)"/>
<path d="M0 0 C7.98541477 6.5633546 7.98541477 6.5633546 10 10 C10 10.99 10 11.98 10 13 C6.42664753 11.80888251 5.58283238 10.56643692 3.3125 7.625 C2.68988281 6.83351563 2.06726563 6.04203125 1.42578125 5.2265625 C0 3 0 3 0 0 Z " fill="#9A2552" transform="translate(211,45)"/>
<path d="M0 0 C4.59306496 1.4859916 7.43569245 3.85014682 11 7 C10.67 7.66 10.34 8.32 10 9 C6.43179569 8.44149846 5.00428942 7.27801323 2.75 4.5 C1.96882812 3.55640625 1.96882812 3.55640625 1.171875 2.59375 C0 1 0 1 0 0 Z " fill="#F3C8DC" transform="translate(145,98)"/>
<path d="M0 0 C1 3 1 3 0.0625 5.1875 C-0.4634375 6.0846875 -0.4634375 6.0846875 -1 7 C-1.66 7 -2.32 7 -3 7 C-3.33 7.99 -3.66 8.98 -4 10 C-4.99 9.67 -5.98 9.34 -7 9 C-5.44499019 5.18315774 -2.96404505 2.80804268 0 0 Z " fill="#F1C5DA" transform="translate(219,385)"/>
<path d="M0 0 C2.3125 -0.3125 2.3125 -0.3125 5 0 C7.72508509 3.28889579 8.36146791 5.78287443 8 10 C4.71211176 6.88983545 2.16264012 3.98381075 0 0 Z " fill="#9A2251" transform="translate(235,384)"/>
<path d="M0 0 C5.13217903 2.25315177 8.9096916 5.26063522 13 9 C12.67 9.66 12.34 10.32 12 11 C7.4296247 8.98053184 4.2966982 6.76765509 1 3 C0.67 2.01 0.34 1.02 0 0 Z " fill="#F2BED5" transform="translate(192,27)"/>
<path d="M0 0 C0.33 0.99 0.66 1.98 1 3 C-0.75 5 -0.75 5 -3 7 C-4.32 7 -5.64 7 -7 7 C-7 7.66 -7 8.32 -7 9 C-7.66 9 -8.32 9 -9 9 C-7.45665977 5.21180126 -4.44676575 0 0 0 Z " fill="#E9B2CA" transform="translate(212,394)"/>
<path d="M0 0 C1.32 0.66 2.64 1.32 4 2 C-1.5332147 5.60861828 -6.49200879 7.00481422 -13 8 C-10.6858779 5.32009731 -8.75647693 4.401276 -5.375 3.4375 C-3.01593777 2.79864318 -3.01593777 2.79864318 -1 2 C-0.67 1.34 -0.34 0.68 0 0 Z " fill="#983059" transform="translate(185,412)"/>
<path d="M0 0 C1.485 0.99 1.485 0.99 3 2 C3.40843923 4.71203652 3.13336867 7.2437142 3 10 C3.66 10 4.32 10 5 10 C5.33 12.64 5.66 15.28 6 18 C3.42274665 14.94627964 2.30432132 12.2945829 1.3125 8.4375 C1.06113281 7.48746094 0.80976563 6.53742188 0.55078125 5.55859375 C0 3 0 3 0 0 Z " fill="#89294E" transform="translate(170,127)"/>
<path d="M0 0 C0.99 0 1.98 0 3 0 C3 0.66 3 1.32 3 2 C4.32 2.33 5.64 2.66 7 3 C6.195625 3.12375 5.39125 3.2475 4.5625 3.375 C3.2940625 3.684375 3.2940625 3.684375 2 4 C1.67 4.66 1.34 5.32 1 6 C-1.64860427 6.59355614 -4.29197322 6.74209269 -7 7 C-6.67 6.34 -6.34 5.68 -6 5 C-4.35 5 -2.7 5 -1 5 C-0.67 3.35 -0.34 1.7 0 0 Z " fill="#A1144A" transform="translate(184,409)"/>
<path d="M0 0 C4.02545534 0.28084572 5.74482626 0.78365704 8.875 3.4375 C11 6 11 6 11 8 C6.51400257 6.74809374 3.40652872 5.20614467 0 2 C0 1.34 0 0.68 0 0 Z " fill="#F3C0DA" transform="translate(302,336)"/>
<path d="M0 0 C-0.59167969 0.19335938 -1.18335938 0.38671875 -1.79296875 0.5859375 C-6.81370339 2.23920222 -6.81370339 2.23920222 -11.75 4.125 C-14.14842849 5.05772219 -16.46775865 5.56590148 -19 6 C-16.49398295 2.24097442 -14.88461746 2.03267133 -10.625 0.75 C-9.48289063 0.39421875 -8.34078125 0.0384375 -7.1640625 -0.328125 C-4.19822317 -0.95790817 -2.77632925 -1.0667669 0 0 Z " fill="#A00D45" transform="translate(177,417)"/>
<path d="M0 0 C1.65 0 3.3 0 5 0 C4.04956626 1.33897583 3.08940853 2.67105427 2.125 4 C1.59132812 4.7425 1.05765625 5.485 0.5078125 6.25 C0.01023438 6.8275 -0.48734375 7.405 -1 8 C-1.66 8 -2.32 8 -3 8 C-3 6.35 -3 4.7 -3 3 C-2.01 3 -1.02 3 0 3 C0 2.01 0 1.02 0 0 Z " fill="#F9D4E8" transform="translate(156,328)"/>
<path d="M0 0 C4.5929708 3.52127761 5.11941917 7.57747597 6 13 C5.34 13 4.68 13 4 13 C-0.59225513 4.738041 -0.59225513 4.738041 0 0 Z " fill="#F1BED7" transform="translate(165,120)"/>
<path d="M0 0 C2.60423592 -0.02697137 5.20819244 -0.04682489 7.8125 -0.0625 C8.55048828 -0.07087891 9.28847656 -0.07925781 10.04882812 -0.08789062 C13.29922068 -0.10259828 15.89404895 -0.03531702 19 1 C19.33 1.99 19.66 2.98 20 4 C19.39414063 3.86722656 18.78828125 3.73445313 18.1640625 3.59765625 C12.12271632 2.32432636 6.15262108 1.49744596 0 1 C0 0.67 0 0.34 0 0 Z " fill="#96385C" transform="translate(119,91)"/>
<path d="M0 0 C0.66 0 1.32 0 2 0 C5.44419134 9.41002278 5.44419134 9.41002278 5 14 C3 13 3 13 2.1484375 11.07421875 C1.89320313 10.28660156 1.63796875 9.49898438 1.375 8.6875 C0.98441406 7.51767578 0.98441406 7.51767578 0.5859375 6.32421875 C0 4 0 4 0 0 Z " fill="#F8CAE0" transform="translate(280,295)"/>
<path d="M0 0 C5.875 3.75 5.875 3.75 7 6 C5.68 6 4.36 6 3 6 C2.67 6.66 2.34 7.32 2 8 C1.01 7.67 0.02 7.34 -1 7 C-0.67 4.69 -0.34 2.38 0 0 Z " fill="#F7D8E8" transform="translate(246,398)"/>
<path d="M0 0 C2.125 0.375 2.125 0.375 4 1 C3.0409375 2.1446875 3.0409375 2.1446875 2.0625 3.3125 C-0.14232781 5.88246713 -0.14232781 5.88246713 -1 9 C-1.66 9 -2.32 9 -3 9 C-2.25 2.25 -2.25 2.25 0 0 Z " fill="#F8D2E4" transform="translate(234,50)"/>
<path d="M0 0 C0.93065133 2.60582371 1.14917407 3.64198224 0.0625 6.25 C-0.4634375 7.11625 -0.4634375 7.11625 -1 8 C-2.65 8 -4.3 8 -6 8 C-4.73058503 4.08597051 -3.48832306 2.20927127 0 0 Z " fill="#9D2D58" transform="translate(243,45)"/>
<path d="M0 0 C1.65 0 3.3 0 5 0 C5 3.33333333 5 6.66666667 5 10 C2.08772731 6.71195019 0.50298788 4.40114397 0 0 Z " fill="#F2C7DC" transform="translate(285,310)"/>
<path d="M0 0 C1.46366342 0.39753821 2.9208935 0.81881384 4.375 1.25 C5.18710938 1.48203125 5.99921875 1.7140625 6.8359375 1.953125 C9.45785454 3.2214892 9.99382318 4.32423308 11 7 C9.68 7 8.36 7 7 7 C7 6.34 7 5.68 7 5 C6.21625 4.731875 5.4325 4.46375 4.625 4.1875 C2 3 2 3 0 0 Z " fill="#991B4B" transform="translate(187,28)"/>
<path d="M0 0 C0.66 0 1.32 0 2 0 C2.75 1.75 2.75 1.75 3 4 C1.1875 6.25 1.1875 6.25 -1 8 C-1.66 8 -2.32 8 -3 8 C-2.37240135 5.07120629 -1.41377341 2.63904371 0 0 Z " fill="#F6E1ED" transform="translate(149,333)"/>
<path d="M0 0 C0 3.62850626 -1.06953668 5.86167278 -2.5 9.1875 C-2.9640625 10.27417969 -3.428125 11.36085938 -3.90625 12.48046875 C-4.2671875 13.31191406 -4.628125 14.14335937 -5 15 C-6.42970811 10.71087566 -5.49708346 7.20907757 -4 3 C-1.875 0.9375 -1.875 0.9375 0 0 Z " fill="#9F0E45" transform="translate(174,308)"/>
<path d="M0 0 C0.33 0.99 0.66 1.98 1 3 C0.0409375 3.7734375 0.0409375 3.7734375 -0.9375 4.5625 C-3.556168 7.65728945 -3.55197128 10.04241301 -4 14 C-4.99 14.495 -4.99 14.495 -6 15 C-5.88541307 13.56163249 -5.75790884 12.12429034 -5.625 10.6875 C-5.55539062 9.88699219 -5.48578125 9.08648437 -5.4140625 8.26171875 C-5 6 -5 6 -3 3 C-2.34 3 -1.68 3 -1 3 C-0.67 2.01 -0.34 1.02 0 0 Z " fill="#9E0941" transform="translate(285,121)"/>
<path d="M0 0 C0.99 0 1.98 0 3 0 C3 0.66 3 1.32 3 2 C3.78375 2.2475 4.5675 2.495 5.375 2.75 C8.32317108 4.15389099 8.9024777 5.00675737 10 8 C5.56983933 6.60766379 3.08449737 4.43701135 0 1 C0 0.67 0 0.34 0 0 Z " fill="#961D4C" transform="translate(294,333)"/>
<path d="M0 0 C0.33 0 0.66 0 1 0 C1.19294408 4.82360189 0.75747614 8.49646738 -1 13 C-1.33 13 -1.66 13 -2 13 C-2.05416188 11.39620659 -2.09286638 9.79188594 -2.125 8.1875 C-2.14820313 7.29417969 -2.17140625 6.40085938 -2.1953125 5.48046875 C-2 3 -2 3 0 0 Z " fill="#9A0A40" transform="translate(274,153)"/>
<path d="M0 0 C0.33 0 0.66 0 1 0 C0.5188509 5.77378925 -1.18467181 9.95859836 -4 15 C-4.33 15 -4.66 15 -5 15 C-5.25 11.75 -5.25 11.75 -5 8 C-3.0625 5.8125 -3.0625 5.8125 -1 4 C-0.2127322 1.8618034 -0.2127322 1.8618034 0 0 Z " fill="#901C49" transform="translate(286,120)"/>
<path d="M0 0 C0.66 0.33 1.32 0.66 2 1 C2.625 3.5625 2.625 3.5625 3 6 C1.35 6 -0.3 6 -2 6 C-2 6.99 -2 7.98 -2 9 C-2.66 9 -3.32 9 -4 9 C-2.80100302 5.9168649 -1.52299523 2.93720508 0 0 Z " fill="#F8B9D8" transform="translate(227,373)"/>
<path d="M0 0 C2.475 0.99 2.475 0.99 5 2 C5 3.65 5 5.3 5 7 C0.125 4.375 0.125 4.375 -1 1 C-0.67 0.67 -0.34 0.34 0 0 Z " fill="#9F2F5B" transform="translate(244,393)"/>
<path d="M0 0 C3.14958831 3.42346555 3.56179109 6.44262737 4 11 C3.34 11 2.68 11 2 11 C0.19769832 7.17010894 -0.19622241 4.21878192 0 0 Z " fill="#F2C4D9" transform="translate(174,143)"/>
<path d="M0 0 C0.66 0 1.32 0 2 0 C1.67 1.65 1.34 3.3 1 5 C-1.64 5.33 -4.28 5.66 -7 6 C-5.62209707 3.24419414 -3.62850007 2.51138754 -1 1 C-0.67 0.67 -0.34 0.34 0 0 Z " fill="#981647" transform="translate(251,39)"/>
<path d="M0 0 C0.99 0.33 1.98 0.66 3 1 C2.67 1.66 2.34 2.32 2 3 C1.01 3 0.02 3 -1 3 C-1 3.66 -1 4.32 -1 5 C-5.47058824 9 -5.47058824 9 -8 9 C-8 7 -8 7 -6.35546875 5.23828125 C-5.64003906 4.60277344 -4.92460937 3.96726563 -4.1875 3.3125 C-3.47980469 2.66925781 -2.77210938 2.02601562 -2.04296875 1.36328125 C-1.36878906 0.91339844 -0.69460937 0.46351562 0 0 Z " fill="#8D234B" transform="translate(254,34)"/>
<path d="M0 0 C1.98 0 3.96 0 6 0 C6 0.66 6 1.32 6 2 C1.545 3.485 1.545 3.485 -3 5 C-3 4.34 -3 3.68 -3 3 C-2.34 3 -1.68 3 -1 3 C-0.67 2.01 -0.34 1.02 0 0 Z " fill="#F8D3E7" transform="translate(282,15)"/>
<path d="M0 0 C0.99 0.33 1.98 0.66 3 1 C1.33333333 2.66666667 -0.33333333 4.33333333 -2 6 C-2.515625 6.61875 -3.03125 7.2375 -3.5625 7.875 C-4.2740625 8.431875 -4.2740625 8.431875 -5 9 C-7.1875 8.6875 -7.1875 8.6875 -9 8 C-8.01 7.67 -7.02 7.34 -6 7 C-5.319375 6.319375 -4.63875 5.63875 -3.9375 4.9375 C-3.298125 4.298125 -2.65875 3.65875 -2 3 C-1.34 3 -0.68 3 0 3 C0 2.01 0 1.02 0 0 Z " fill="#951043" transform="translate(211,390)"/>
<path d="M0 0 C0.33 0.66 0.66 1.32 1 2 C0.67 2.66 0.34 3.32 0 4 C-3.63 4 -7.26 4 -11 4 C-7.32326162 2.16163081 -3.95007553 1.06348187 0 0 Z " fill="#9A2552" transform="translate(137,346)"/>
<path d="M0 0 C1.98 0.495 1.98 0.495 4 1 C2.68 3.64 1.36 6.28 0 9 C-0.33 9 -0.66 9 -1 9 C-1.125 2.25 -1.125 2.25 0 0 Z " fill="#99315A" transform="translate(288,115)"/>
<path d="M0 0 C4.875 4.625 4.875 4.625 6 8 C4.35 7.67 2.7 7.34 1 7 C0.67 4.69 0.34 2.38 0 0 Z " fill="#ECB6CE" transform="translate(159,110)"/>
<path d="M0 0 C0.66 0.33 1.32 0.66 2 1 C1.875 2.875 1.875 2.875 1 5 C-2.0625 6.25 -2.0625 6.25 -5 7 C-3.75023244 3.34683329 -3.32901247 2.21934164 0 0 Z " fill="#F1C3DA" transform="translate(260,27)"/>
<path d="M0 0 C7.42857143 -0.28571429 7.42857143 -0.28571429 11 2 C11 2.33 11 2.66 11 3 C7.04 2.67 3.08 2.34 -1 2 C-0.67 1.34 -0.34 0.68 0 0 Z " fill="#F6C5D9" transform="translate(141,10)"/>
<path d="M0 0 C3.63 0.66 7.26 1.32 11 2 C11 2.33 11 2.66 11 3 C7.37 3.33 3.74 3.66 0 4 C0 2.68 0 1.36 0 0 Z " fill="#F6CAE0" transform="translate(288,423)"/>
<path d="M0 0 C0.33 0.66 0.66 1.32 1 2 C2.65 2 4.3 2 6 2 C6.33 2.99 6.66 3.98 7 5 C7.66 5.33 8.32 5.66 9 6 C7.68 6 6.36 6 5 6 C5 5.34 5 4.68 5 4 C3.35 3.67 1.7 3.34 0 3 C0 2.01 0 1.02 0 0 Z " fill="#9F154A" transform="translate(268,411)"/>
<path d="M0 0 C1.32 0.33 2.64 0.66 4 1 C4.33 3.31 4.66 5.62 5 8 C2.5 5.6875 2.5 5.6875 0 3 C0 2.01 0 1.02 0 0 Z " fill="#982452" transform="translate(229,374)"/>
<path d="M0 0 C1.32 0.66 2.64 1.32 4 2 C1.75 4.0625 1.75 4.0625 -1 6 C-3.3125 5.75 -3.3125 5.75 -5 5 C-4.01 5 -3.02 5 -2 5 C-1.7834375 4.0409375 -1.7834375 4.0409375 -1.5625 3.0625 C-1 1 -1 1 0 0 Z " fill="#93264F" transform="translate(199,402)"/>
<path d="M0 0 C4.875 3.625 4.875 3.625 6 7 C5.01 7.33 4.02 7.66 3 8 C3 7.34 3 6.68 3 6 C2.34 6 1.68 6 1 6 C0.67 4.02 0.34 2.04 0 0 Z " fill="#F7CCE1" transform="translate(237,388)"/>
<path d="M0 0 C5.75 0.75 5.75 0.75 8 3 C5.03 3 2.06 3 -1 3 C-0.67 2.01 -0.34 1.02 0 0 Z " fill="#F6DBEA" transform="translate(315,342)"/>
<path d="M0 0 C0.33 0 0.66 0 1 0 C1.3125 2.3125 1.3125 2.3125 1 5 C-1.375 6.875 -1.375 6.875 -4 8 C-4.66 7.67 -5.32 7.34 -6 7 C-5.02433888 5.83040013 -4.044375 4.66438823 -3.0625 3.5 C-2.51722656 2.8503125 -1.97195312 2.200625 -1.41015625 1.53125 C-0.71212891 0.77328125 -0.71212891 0.77328125 0 0 Z " fill="#94234F" transform="translate(160,329)"/>
<path d="M0 0 C0.66 0.33 1.32 0.66 2 1 C2 2.65 2 4.3 2 6 C0.68 6 -0.64 6 -2 6 C-1.125 1.125 -1.125 1.125 0 0 Z " fill="#FAE9F5" transform="translate(159,322)"/>
<path d="M0 0 C0 0.99 0 1.98 0 3 C-3 5 -3 5 -5 5 C-5.99 5.66 -6.98 6.32 -8 7 C-6.86500606 3.70851757 -6.00716624 3.0040131 -2.875 1.25 C-1.92625 0.8375 -0.9775 0.425 0 0 Z " fill="#F8E0ED" transform="translate(256,30)"/>
<path d="M0 0 C0.99 0.33 1.98 0.66 3 1 C2.01 1.495 2.01 1.495 1 2 C0.67 2.99 0.34 3.98 0 5 C-1.875 6.25 -1.875 6.25 -4 7 C-4.99 6.67 -5.98 6.34 -7 6 C-5.90716423 4.96704564 -4.80029421 3.94892165 -3.6875 2.9375 C-3.07261719 2.36902344 -2.45773438 1.80054688 -1.82421875 1.21484375 C-0.92123047 0.61349609 -0.92123047 0.61349609 0 0 Z " fill="#F3C4DA" transform="translate(194,408)"/>
<path d="M0 0 C0.33 0 0.66 0 1 0 C1 2.97 1 5.94 1 9 C0.34 9 -0.32 9 -1 9 C-1.33 9.66 -1.66 10.32 -2 11 C-1.125 3.375 -1.125 3.375 0 0 Z " fill="#E5A7C3" transform="translate(280,138)"/>
<path d="M0 0 C-3.08559304 2.26881841 -4.42209376 3.05451946 -8.3125 2.6875 C-9.199375 2.460625 -10.08625 2.23375 -11 2 C-11 1.67 -11 1.34 -11 1 C-3.57142857 -1.42857143 -3.57142857 -1.42857143 0 0 Z " fill="#F2C1D9" transform="translate(181,419)"/>
<path d="M0 0 C2.31 0.33 4.62 0.66 7 1 C7 1.99 7 2.98 7 4 C4.03 3.505 4.03 3.505 1 3 C0.67 2.01 0.34 1.02 0 0 Z " fill="#FCEBF4" transform="translate(237,394)"/>
<path d="M0 0 C2.5 2.3125 2.5 2.3125 5 5 C5 5.99 5 6.98 5 8 C4.01 7.67 3.02 7.34 2 7 C0.8125 3.4375 0.8125 3.4375 0 0 Z " fill="#9A385F" transform="translate(216,50)"/>
</svg>
